<?xml version="1.0" encoding="utf-8"?>
<!-- Svg Vector Icons : http://www.onlinewebfonts.com/icon -->
<!DOCTYPE svg PUBLIC "-//W3C//DTD SVG 1.1//EN" "http://www.w3.org/Graphics/SVG/1.1/DTD/svg11.dtd">
<svg version="1.1" xmlns="http://www.w3.org/2000/svg" xmlns:xlink="http://www.w3.org/1999/xlink" x="0px" y="0px" viewBox="0 0 256 256" enable-background="new 0 0 256 256" xml:space="preserve">
<metadata> Svg Vector Icons : http://www.onlinewebfonts.com/icon </metadata>
    <g><g><g><path fill="#000000" d="M106.5,52C95.2,65.9,85.8,77.7,85.7,78c-0.4,1.8,0.6,2.1,8.7,2.1h7.8v21.6c0,16.2,0.1,21.7,0.6,22.2c0.4,0.4,6.6,0.6,25.1,0.6c21.7,0,24.6-0.1,25.3-0.7c0.6-0.6,0.7-3.3,0.7-22.2V80.1h7.8c8.2,0,9.2-0.2,8.7-2.2c-0.1-0.5-9.5-12.2-20.9-26.1c-14.1-17.3-20.9-25.2-21.5-25.2S120.7,34.6,106.5,52z"/><path fill="#000000" d="M16,71.4c-2.1,0.6-5,3.6-5.6,5.9c-0.3,1.3-0.4,24-0.4,74l0.1,72.1l1.1,1.8c0.6,1,1.9,2.3,3,3l1.9,1.2H128h112l1.8-1.1c1-0.6,2.3-1.9,3-3l1.2-1.9v-73.2V77.1l-1.2-1.9c-0.7-1-2-2.4-3-3l-1.8-1.1L209.9,71c-16.6,0-30.1,0-30.1,0.1c0,0.1,0.4,1.1,0.9,2.2c1.8,3.9,0.9,10.2-1.7,13l-1.2,1.3h25.9h25.9v40v40.1l-17-17c-10.9-10.9-17.3-16.9-17.9-16.9s-7.2,6.2-18.6,17.6l-17.6,17.6l-17-16.7l-17.1-16.7h-11.3c-9.1,0-11.7-0.1-13.4-0.7c-2.5-0.9-6.4-4.2-7.2-6.2c-0.3-0.7-0.7-1.4-0.9-1.4c-0.1,0-5.3,5-11.4,11.2L69,149.6l-8-8c-4.8-4.8-8.3-7.9-8.9-7.9c-0.6,0-5.5,4.7-13.2,12.3l-12.4,12.4v-35.4V87.5l25.9-0.1l25.9-0.1l-1.2-1.5c-3.1-3.7-3.4-8.3-1-14.1c0.3-0.7-1.2-0.8-29.1-0.7C29.9,70.9,16.9,71.2,16,71.4z"/></g></g></g>
</svg>
