<svg width="254" height="332" viewBox="0 0 254 332" fill="none" xmlns="http://www.w3.org/2000/svg">
<path d="M185.791 307.424C190.306 305.889 205.045 301.966 207.601 299.749C210.157 297.532 215.184 292.329 220.721 292.159C226.259 292.073 243.554 291.221 243.554 291.221L252.414 288.065L250.284 284.91C250.284 284.91 242.191 281.669 239.635 279.537C237.079 277.405 232.223 272.458 232.223 271.52C232.223 270.582 233.756 260.348 230.86 256.084C227.963 251.82 224.044 242.865 224.044 242.865L220.295 237.833C220.295 237.833 223.192 226.917 223.192 225.296C223.192 225.296 220.721 211.566 217.058 207.387C213.394 203.208 206.068 193.656 202.745 191.268C199.508 188.795 191.244 180.266 189.028 177.537C186.813 174.894 177.868 161.504 176.845 158.86C175.823 156.216 174.63 154.34 174.63 154.34L166.366 124.406L181.02 103.34C181.02 103.34 196.611 88.8422 201.126 87.9894C205.642 87.1366 212.372 87.6483 212.372 87.6483C212.372 87.6483 212.968 83.1282 212.372 82.2754C211.776 81.4225 211.009 79.6316 211.009 79.6316C211.009 79.6316 215.184 79.5463 216.121 80.4844C217.058 81.4225 218.421 81.5078 218.762 79.461C219.103 77.4142 219.103 65.0481 217.569 62.4043C216.036 59.7605 210.924 53.7906 206.408 50.5498C201.893 47.309 195.248 40.4011 193.629 35.7105C192.01 30.9346 190.647 22.4915 185.28 20.6152C179.912 18.739 179.827 16.0952 177.868 15.0718C175.908 14.0484 166.878 10.9782 164.748 10.04C162.618 9.10192 160.317 8.1638 159.806 6.88455C159.295 5.52001 158.017 3.64376 157.421 3.89961C156.824 4.15547 156.484 7.48153 156.484 8.41965C156.484 9.35778 155.461 9.86948 154.609 9.01664C153.757 8.1638 151.201 6.71398 150.35 3.89961C149.498 1.08525 148.986 0.232414 148.646 1.25582C148.305 2.27922 148.22 8.33437 148.56 9.35778C148.986 10.3812 149.157 12.1721 149.157 12.1721C149.157 12.1721 143.023 12.2574 137.996 16.0952C132.97 19.933 124.62 29.0583 124.62 29.0583L116.101 35.284L117.123 44.3241L115.249 55.0699C115.249 55.0699 109.796 65.0481 108.178 66.4979C106.559 67.9477 100.34 73.9176 100.254 75.1115C100.169 76.3055 99.5728 76.9878 99.658 77.1584C99.7432 77.3289 100.084 77.4995 100.851 76.7319C101.532 75.8791 102.384 75.3674 102.81 75.7085C103.236 76.0497 103.662 79.461 104.429 80.3991C105.196 81.3373 108.348 86.2837 108.348 86.2837C108.348 86.2837 106.133 87.8188 105.622 88.3305C105.111 88.8422 103.492 88.6717 104.429 90.4626C105.451 92.2536 109.626 96.2619 110.137 96.4325C110.648 96.6031 121.127 101.891 121.298 102.061C121.553 102.232 131.947 111.613 132.288 111.869C132.629 112.125 142 121.591 142 121.591L142.767 125.173L144.641 128.158L144.556 139.074L135.781 162.954L129.136 166.195C129.136 166.195 121.979 172.676 120.872 173.103C119.679 173.529 118.657 176.514 118.401 177.026C118.145 177.537 115.419 183.166 115.419 183.166C115.419 183.166 113.8 188.88 113.545 189.051C113.289 189.307 103.407 196.726 103.066 196.982C102.725 197.238 93.6943 202.867 93.6943 202.867C93.6943 202.867 83.6412 200.905 82.8744 200.735C82.1076 200.564 73.588 199.37 73.588 199.37L67.7095 202.867C67.7095 202.867 65.75 201.587 64.5573 200.905C63.3645 200.223 51.7779 194.765 50.2444 193.315C48.7108 191.95 31.4161 181.205 25.7932 170.8C20.085 160.31 16.8476 156.302 15.8252 155.364C14.8029 154.425 13.2694 151.867 11.9062 152.549C10.5431 153.231 10.2023 159.884 10.2875 160.481C10.3727 161.078 25.3672 189.989 25.9635 190.842C26.5599 191.694 32.9496 201.076 32.9496 201.076C32.9496 201.076 27.4971 200.138 26.4747 199.796C25.4524 199.455 8.58359 190.927 6.70928 189.818C4.83497 188.624 1.34194 187.942 1.34194 187.942C1.34194 187.942 1.00116 190.927 1.42714 191.865C1.85312 192.803 22.8113 210.713 25.7932 211.821C28.775 213.015 29.201 214.977 29.201 214.977C29.201 214.977 25.1116 216.256 21.2778 215.403C17.444 214.55 12.247 214.38 12.247 215.062C12.247 215.744 15.0585 220.265 15.0585 220.265L32.3532 224.188C32.3532 224.188 30.0529 233.569 30.6493 233.739C31.2457 233.825 70.947 250.626 70.947 250.626L69.0727 256.084C69.0727 256.084 61.9162 269.985 61.9162 271.094C61.9162 272.117 60.6383 279.707 60.6383 279.707C60.6383 279.707 57.8268 282.181 57.4008 283.46C56.9748 284.739 55.7821 292.159 55.7821 292.159L62.7682 300.517L106.048 305.634L185.791 307.424Z" fill="white"/>
<path d="M115.675 205.083C115.675 205.083 127.176 210.626 132.118 210.882C137.059 211.138 128.454 208.409 123.768 203.207C122.15 201.416 114.056 190.073 113.289 189.476C112.523 188.879 102.469 198.09 102.469 198.09L93.3535 203.036L108.944 211.565C109.456 211.223 115.675 205.083 115.675 205.083Z" fill="#E4E6EA"/>
<path d="M85.9432 254.803L145.325 249.26L174.121 231.606L180.596 224.016C180.596 224.016 184.6 223.845 185.111 223.675C185.537 223.59 187.326 226.916 187.326 226.916L191.586 223.504L197.379 217.193C195.249 210.882 188.349 203.974 184.856 201.757C181.363 199.54 178.381 194.934 181.703 202.951C183.322 206.789 182.64 210.456 181.448 213.27L181.618 210.712C181.703 210.115 181.022 209.774 180.511 210.115L145.41 235.7C145.41 235.7 107.072 229.559 88.1583 244.911C88.1583 244.911 74.1861 232.544 58.7657 226.575C49.9905 223.163 36.6148 221.116 34.2293 220.775L34.3145 220.69C34.3145 220.69 18.8088 221.287 14.123 218.558C14.123 218.558 16.9345 223.76 25.1985 225.039C30.8214 225.892 32.355 225.466 32.355 225.466L33.8033 221.884L33.1217 232.203L85.9432 254.803Z" fill="#E4E6EA"/>
<path d="M202.491 230.839C200.02 232.118 188.689 237.661 183.578 239.708C178.466 241.67 176.166 242.352 173.354 242.608C170.543 242.864 156.145 249.43 150.522 251.904C144.899 254.377 129.734 257.959 130.245 258.044C133.738 258.385 146.432 256.935 152.566 255.059C158.7 253.183 185.878 243.461 193.034 239.964C200.276 236.467 204.962 229.559 202.491 230.839Z" fill="#E4E6EA"/>
<path d="M200.275 241.67C201.638 240.05 194.992 243.546 184.343 248.152C173.693 252.757 154.184 257.874 154.184 257.874C154.184 257.874 158.017 258.727 162.107 258.471C166.196 258.215 189.625 249.772 192.607 248.578C195.589 247.384 198.656 243.632 200.275 241.67Z" fill="#E4E6EA"/>
<path d="M252.414 285.932C252.414 285.932 249.518 287.894 243.554 287.894C237.675 287.894 231.115 284.312 228.9 282.095C228.815 281.668 233.927 271.519 233.16 264.526C231.967 253.951 226.77 247.555 226.77 247.555C226.77 247.555 229.752 258.215 226.344 266.829C222.851 275.442 213.48 289.941 202.575 294.717C202.575 294.717 194.992 290.538 190.136 291.902L189.625 297.019C189.625 297.019 192.181 294.12 194.992 297.105C197.804 300.089 199.082 305.121 197.974 307.765C197.974 307.765 203.171 308.788 207.516 305.036C211.861 301.283 215.78 297.616 215.78 297.616C215.78 297.616 221.744 298.981 225.833 298.043C229.923 297.105 233.245 296.166 233.245 296.166C233.245 296.166 244.065 294.631 246.025 293.352C248.069 292.243 255.141 289.088 252.414 285.932Z" fill="#E4E6EA"/>
<path d="M131.608 299.748C128.115 300.089 123.003 299.492 116.443 299.492C109.798 299.492 109.712 300.175 100.17 299.919C90.6285 299.663 85.6871 293.864 82.2793 289.002C78.8714 284.141 72.6521 281.327 72.6521 281.327C77.5083 285.591 79.8086 292.158 75.634 293.437C71.4594 294.716 67.8812 289.599 66.2624 287.041C64.6437 284.482 61.6619 286.615 60.7247 284.397C59.7876 282.18 64.3029 278.598 63.3658 278.683C62.4286 278.768 58.5096 281.839 58.5096 281.839C58.5096 281.839 54.6758 288.15 54.5906 288.491C54.5054 288.832 55.613 290.964 55.613 290.964L60.1283 289.344L62.6842 287.979C62.6842 287.979 65.4957 291.817 66.518 293.181C67.5404 294.546 67.37 297.275 67.37 299.066C63.9622 299.151 61.2359 300.26 61.2359 300.26C61.2359 300.26 67.37 303.671 70.6926 304.012C71.289 304.098 74.782 303.586 76.9119 304.268C79.0418 304.951 91.2248 310.153 97.6997 311.432C104.175 312.711 123.94 309.556 130.926 310.409C137.912 311.262 148.562 313.564 148.562 313.564L143.791 300.942C142.854 300.345 135.101 299.407 131.608 299.748Z" fill="#E4E6EA"/>
<path d="M76.656 255.23L70.1811 255.145L61.4911 272.713L60.4688 279.45L65.4953 278.001C65.4953 278.001 64.1322 272.628 67.0288 267.511C69.9255 262.394 76.656 255.23 76.656 255.23Z" fill="#E4E6EA"/>
<path d="M39.7662 218.131L45.3039 214.976C45.3039 214.976 41.8109 212.502 32.4394 210.029C28.0944 208.835 16.2521 202.951 12.6739 200.307C9.09569 197.663 2.02443 188.111 2.02443 188.111C2.02443 188.111 0.831693 189.305 2.706 194.252C4.58031 199.198 15.5706 208.494 26.0497 213.441C29.8835 215.146 39.4254 218.131 39.7662 218.131Z" fill="#E4E6EA"/>
<path d="M31.757 199.369C33.2905 201.075 49.3073 212.759 49.3073 212.759L59.4456 207.983C59.4456 207.983 41.8953 198.943 35.0796 193.485C28.264 188.027 14.7178 171.567 12.7583 163.635C11.8212 159.883 9.94684 146.92 10.6284 161.674C11.3952 176.428 30.2235 197.578 31.757 199.369Z" fill="#E4E6EA"/>
<path d="M169.945 166.109C163.896 168.326 159.807 165.682 158.358 164.318C156.995 162.953 153.928 159.627 153.928 159.627C153.928 159.627 151.117 162.1 148.646 162.271C146.175 162.356 141.234 159.627 141.234 159.627C141.234 159.627 135.781 165.938 129.647 165.682C128.369 165.597 132.459 168.241 136.122 167.814C139.871 167.388 143.875 164.574 143.875 164.574C143.875 164.574 149.328 166.706 152.565 165.426C152.821 165.767 155.973 170.97 164.152 171.311C172.416 171.652 177.527 166.45 177.868 160.906L174.971 155.278C175.057 155.107 173.012 165 169.945 166.109Z" fill="#E4E6EA"/>
<path d="M127.432 101.123L118.486 100.355C118.486 100.355 129.903 110.248 131.521 111.868C132.544 112.892 137.911 117.582 140.808 120.738C141.489 121.505 141.83 122.444 142.086 123.211C141.915 123.211 141.745 123.211 141.745 123.211L142.171 123.723C142.426 124.49 142.597 125.087 143.023 125.002C143.108 125.002 143.108 125.002 143.193 125.002L145.919 128.243C156.484 132.678 162.788 127.816 162.788 127.816L161.169 138.477C161.169 138.477 172.16 138.903 171.989 135.833C171.734 132.678 175.482 119.544 175.482 119.544H174.63C175.568 117.327 177.357 113.404 178.72 111.527C180.679 108.883 193.118 94.8117 195.418 93.3618C197.718 91.9973 206.068 85.601 210.753 87.6478C210.753 87.6478 211.946 86.2833 211.691 85.5157C211.435 84.8334 202.745 82.5308 193.459 89.7799C184.172 97.1143 172.841 110.93 166.622 114.427C162.362 116.815 159.21 117.156 156.313 118.265C154.439 118.947 146.942 119.629 146.09 116.985C145.664 115.45 151.372 115.791 154.609 114.683C160.317 112.807 164.322 109.225 168.241 102.572C172.16 95.9203 172.075 89.0976 172.075 89.0976C172.075 89.0976 165.088 108.286 152.565 109.736C140.041 111.271 135.355 109.822 133.31 107.775C131.266 105.813 127.432 101.123 127.432 101.123Z" fill="#E4E6EA"/>
<path d="M177.188 66.4974L179.317 70.8468C179.317 70.8468 183.748 69.6529 185.111 70.7616C185.111 70.8468 183.322 64.7917 177.188 66.4974Z" fill="#E4E6EA"/>
<path d="M209.648 80.9954C213.311 78.8633 218.082 81.4219 218.082 81.4219L219.019 79.5456C219.019 79.5456 219.275 76.9871 213.652 76.1343C208.114 75.2814 204.621 79.6309 204.621 79.6309C207.944 79.2898 209.648 80.9954 209.648 80.9954Z" fill="#E4E6EA"/>
<path d="M167.134 59.8451C167.134 59.8451 164.834 53.9605 163.215 51.7431C161.596 49.5257 165.43 41.5091 165.43 39.1211C165.43 36.6479 174.802 31.7867 177.273 30.2516C179.743 28.7165 184.259 37.9271 187.411 38.6947C190.563 39.4622 192.778 31.1044 192.778 31.1044C192.778 31.1044 191.841 27.8636 190.478 24.1112C189.115 20.3587 181.873 18.9941 181.873 18.9941C181.873 18.9941 175.995 18.9941 168.838 25.3904C161.767 31.7867 158.87 42.6177 159.467 50.0374C160.063 57.4571 167.134 59.8451 167.134 59.8451Z" fill="#E4E6EA"/>
<path d="M103.408 76.3051C103.494 78.1813 106.816 85.9421 108.605 86.2833C110.309 86.6244 117.21 81.6779 119.51 76.902C121.811 72.1262 124.281 67.862 124.707 63.5125C125.133 59.163 124.281 62.9155 121.299 60.954C118.403 58.9925 117.551 52.0845 117.721 50.7199C117.806 49.3554 119.681 42.021 121.64 41.1681C123.6 40.3153 129.563 42.1063 130.075 44.5795C130.586 47.0527 131.353 47.8203 131.353 47.8203L137.742 41.6799C137.742 41.6799 135.186 35.4541 129.989 33.0662C124.792 30.593 118.147 32.8103 118.147 32.8103L116.273 36.2217L117.977 43.5561C117.977 43.5561 116.699 55.7517 114.058 58.3955C111.417 61.0393 103.579 70.2499 101.79 72.8937C100 75.5375 99.8301 77.5843 99.8301 77.5843C99.8301 77.5843 103.238 74.4288 103.408 76.3051Z" fill="#E4E6EA"/>
<path d="M169.093 136.857C164.322 137.113 159.807 139.842 158.188 141.974C156.569 144.106 154.78 145.897 154.78 145.897C154.78 145.897 153.587 144.532 151.543 144.277C149.413 144.021 146.005 144.959 146.005 144.959C146.005 144.959 141.915 137.624 138.848 136.516C135.696 135.322 132.799 133.872 131.181 135.919C129.562 138.051 126.41 142.912 125.728 144.532C125.047 146.153 123.172 153.914 124.535 158.093C125.899 162.271 127.347 164.745 128.455 164.915C129.647 165.171 132.885 166.28 137.4 163.039C141.915 159.798 141.915 158.945 141.915 158.945C141.915 158.945 143.108 161.504 146.005 161.93C148.902 162.357 154.013 159.287 154.013 159.287C154.013 159.287 156.654 164.062 158.784 165.086C160.914 166.109 165.77 167.559 167.389 166.706C169.008 165.853 172.245 165.001 173.268 161.674C174.29 158.434 176.164 150.076 175.568 147.944C174.971 145.812 174.545 140.354 172.671 138.392C170.797 136.686 169.093 136.857 169.093 136.857Z" fill="#8652F6"/>
<path d="M165.94 137.027C165.94 137.027 169.859 138.307 170.455 144.447C171.052 150.587 172.926 160.054 166.707 162.101C160.573 164.233 155.461 160.822 155.461 160.822C155.461 160.822 159.636 165.597 162.788 166.024C165.94 166.45 170.881 166.877 172.756 161.589C174.63 156.301 174.971 147.517 174.715 146.494C174.46 145.47 171.563 137.454 171.563 137.454L165.94 137.027Z" fill="#5326BD"/>
<path d="M154.694 146.068C154.694 146.068 152.139 152.55 152.394 154.767C152.65 156.984 154.013 159.628 154.013 159.628L150.179 162.101C150.179 162.101 147.282 157.325 148.049 151.953C148.901 146.58 149.923 143.851 149.923 143.851C149.923 143.851 153.757 144.192 154.694 146.068Z" fill="#5326BD"/>
<path d="M144.811 144.532L142.255 141.291C142.255 141.291 139.273 144.617 138.081 148.625C136.718 153.145 138.421 157.324 138.421 157.324C138.421 157.324 132.884 159.883 130.413 159.883C127.942 159.883 125.812 160.139 125.812 160.139C125.812 160.139 127.176 165 128.794 164.915C130.413 164.829 132.543 165.853 137.399 162.783C142.255 159.798 141.829 158.604 141.829 158.604C141.829 158.604 140.977 152.719 141.915 150.331C142.852 147.943 144.811 144.532 144.811 144.532Z" fill="#5326BD"/>
<path d="M178.123 66.9242C179.23 67.0948 180.764 68.2888 179.401 72.0412C178.037 75.7937 174.885 86.2836 173.352 89.5244C171.818 92.7652 161.595 108.884 151.201 109.651C140.807 110.419 135.865 110.078 128.283 101.294C128.283 101.294 115.163 100.355 110.307 96.9441C105.451 93.5327 103.832 90.1214 105.536 88.7569C107.24 87.3923 116.952 83.0428 119.423 77.4141C121.893 71.7854 127.005 56.1785 130.072 50.1233C133.139 44.0682 137.825 39.8893 142.596 40.2304C147.367 40.5715 154.012 45.0063 155.12 47.6501C155.12 47.6501 157.164 61.2955 160.828 67.1801C164.491 73.0646 168.836 72.7235 171.477 70.762C174.118 68.8005 176.419 66.5831 178.123 66.9242Z" fill="#F8CD46"/>
<path d="M144.386 268.279C142.938 269.217 140.638 278.513 141.149 282.521C141.66 286.53 143.62 309.045 151.032 319.108C158.444 329.171 164.322 331.73 171.649 331.048C178.294 330.451 180.169 325.931 184.769 320.046C189.37 314.162 196.356 308.277 197.123 307.68C197.889 307.083 198.401 300.09 196.015 298.555C193.63 297.019 189.029 297.02 189.029 297.02C189.029 297.02 190.137 281.413 188.603 275.954C187.069 270.496 184.599 261.883 181.361 263.077C178.124 264.271 178.891 270.326 175.483 271.008C172.075 271.69 168.667 271.179 164.833 264.526C161 257.874 159.125 270.411 157.251 272.884C155.377 275.357 151.202 273.481 149.328 271.179C147.453 268.705 146.687 266.744 144.386 268.279Z" fill="#F8CD46"/>
<path d="M61.4902 287.979C61.4902 287.979 59.4455 290.111 55.7821 290.964C52.0335 291.732 52.0335 290.623 52.0335 290.623C52.0335 290.623 55.0153 278.683 54.5042 272.799C53.993 266.914 55.1005 260.262 53.7374 255.913C52.3743 251.563 49.9888 246.19 48.2849 246.873C46.5809 247.555 44.5362 250.369 43.5991 251.051C42.6619 251.734 38.7429 254.804 34.7387 248.919C30.7345 243.12 30.8197 241.67 28.4342 242.864C26.0487 244.058 25.1116 250.54 23.7484 251.819C22.3853 253.098 18.8071 255.06 15.74 251.734C12.673 248.408 9.60593 247.043 9.52073 249.602C9.43554 252.16 9.86151 266.914 10.2875 269.387C10.7135 271.861 13.099 291.732 18.4663 298.64C23.9188 305.548 25.6227 310.75 31.9272 311.006C38.2317 311.262 42.5767 309.215 44.0251 308.874C45.3882 308.447 52.6298 304.78 54.3338 303.33C56.0377 301.881 59.2751 299.834 62.5126 299.663C65.75 299.493 67.2835 299.322 67.2835 299.322C67.2835 299.322 67.7095 293.864 66.4316 291.902C64.9832 289.941 61.4902 287.979 61.4902 287.979Z" fill="#F8CD46"/>
<path d="M195.758 298.81C192.947 295.91 188.772 296.592 188.772 296.592L189.624 290.111C189.624 290.111 187.665 267.767 184.853 264.867C182.042 261.967 181.36 262.991 181.36 262.991C181.36 262.991 182.979 269.472 183.831 275.868C184.683 282.265 184.087 305.803 179.912 313.138C175.737 320.472 172.585 325.759 163.64 322.775C154.694 319.79 149.156 313.138 149.156 313.138C149.156 313.138 155.461 326.015 160.061 328.574C164.662 331.132 171.904 333.606 178.208 327.977C184.853 322.092 184.257 319.278 185.194 318.425C185.705 317.999 197.633 307.082 197.633 307.082C197.633 307.082 198.57 301.709 195.758 298.81Z" fill="#EFB519"/>
<path d="M61.9152 288.149L55.4404 291.561L51.6065 290.879C51.6065 290.879 53.2253 284.226 53.4808 281.838C53.7364 279.45 54.0772 256.168 53.566 254.803C53.0549 253.439 50.7546 247.725 48.7951 247.64C48.7951 247.64 49.9878 270.069 49.2211 276.892C48.5395 283.715 49.647 292.925 42.235 298.725C34.8229 304.524 27.4961 308.447 20.7656 301.539C20.7656 301.539 23.3215 312.114 34.2266 312.029C45.1316 311.944 46.8356 307.509 46.8356 307.509C46.8356 307.509 56.7183 302.307 59.4446 301.198C62.256 300.174 67.3678 299.577 67.3678 299.577C67.3678 299.577 67.9641 294.205 66.9418 292.755C65.9194 291.305 61.9152 288.149 61.9152 288.149Z" fill="#EFB519"/>
<path d="M169.859 95.4083C173.011 92.5087 175.311 84.5773 176.334 81.6777C177.356 78.778 180.082 70.3349 179.656 70.6761C179.23 71.0172 173.948 77.0723 171.392 78.9486C168.836 80.8248 162.532 86.1124 150.945 90.1208C145.322 91.997 129.817 91.7411 119.508 91.4C109.199 91.0589 106.729 87.8181 106.729 87.8181C106.729 87.8181 105.366 87.477 104.854 90.4619C104.428 93.4468 111.5 97.7963 115.759 99.502C120.019 101.208 126.409 100.696 126.409 100.696C126.409 100.696 133.48 106.239 136.888 109.31C140.296 112.295 144.982 110.674 151.542 110.162C158.017 109.48 166.792 98.308 169.859 95.4083Z" fill="#EFB519"/>
<path d="M151.201 52.6814C152.479 56.775 153.416 64.5359 159.55 70.0793C165.684 75.6228 170.37 71.9555 170.37 71.9555C161.339 70.4204 159.465 64.3653 157.846 58.7366C156.483 53.7901 159.124 48.5025 150.689 42.7032C142.34 36.9892 134.758 43.7266 134.758 43.7266C143.448 40.4858 149.923 48.5878 151.201 52.6814Z" fill="#EFB519"/>
<path d="M170.456 144.703C170.711 149.82 170.03 154.596 169.859 159.713C172.415 155.278 173.012 149.308 170.456 144.703Z" fill="#1F1F1F"/>
<path d="M252.158 284.056C248.495 282.607 244.832 282.01 241.509 279.963C238.186 278.001 235.205 275.272 233.33 271.861C234.949 263.759 233.075 255.827 228.644 248.578C226.515 244.996 224.044 241.67 221.318 238.685C229.582 226.063 222.766 210.456 212.031 198.346C207.771 193.4 202.574 189.221 197.889 184.871C188.858 176.258 180.935 166.194 175.482 154.851C176.249 149.308 176.845 141.974 173.182 137.539C173.438 132.251 174.63 127.049 176.419 122.188C180.338 111.271 193.885 94.8117 204.364 89.7799C206.919 88.5007 209.901 88.1595 212.798 88.0742C212.798 88.0742 212.883 87.5625 212.883 87.3067C213.394 85.0893 213.48 82.4455 212.457 80.3987C213.224 80.2281 214.076 80.3134 214.928 80.5693C216.291 81.081 217.654 81.8485 218.591 83.0425L218.932 81.8485C221.488 73.2349 221.999 62.5744 215.524 55.3253C213.394 53.1932 210.924 51.4022 208.538 49.6113C203.852 46.1999 198.826 43.3003 196.1 38.098C193.033 32.5545 193.459 21.9793 187.239 18.9091C186.558 18.6533 185.791 18.4827 185.109 18.3121C184.854 16.9476 184.343 13.7921 184.343 13.7921C182.724 14.2185 181.105 14.8155 179.572 15.583C179.401 15.4978 179.316 15.4125 179.146 15.3272C175.567 12.7687 171.563 10.6366 167.218 9.5279C162.873 8.58978 160.914 8.76035 158.954 4.32559C158.613 3.81389 157.847 2.96105 157.08 3.47275C156.143 4.15502 155.972 5.349 155.802 6.28712C155.717 7.05467 155.632 7.73694 155.546 8.5045C152.905 6.88411 150.605 4.32559 150.179 1.25538C150.179 0.573107 149.753 -0.365015 148.901 0.146688C146.004 2.96105 146.516 8.07808 148.645 11.4041C138.422 10.5513 130.414 19.9325 124.62 27.7786C123.598 27.5228 122.576 27.3522 121.383 27.3522C113.971 27.3522 115.078 28.3756 115.078 28.3756L115.845 29.6549C116.015 29.996 115.93 30.4224 115.675 30.593C114.738 31.19 113.63 32.7251 113.63 34.8572C113.63 36.904 114.482 37.1598 115.164 37.0746C115.419 39.8889 115.675 42.618 116.015 45.4324C115.419 51.2317 113.8 56.8604 110.393 61.7216C107.326 66.4122 102.469 70.1646 99.8283 75.2817C99.4875 76.1345 98.8911 77.4991 99.9987 78.096C100.68 77.3285 101.532 76.6462 102.384 76.1345C101.873 79.1194 104.088 81.9338 105.707 84.1512C106.303 84.8335 106.814 85.601 107.496 86.2833C107.07 86.5391 106.644 86.7097 106.218 86.8803C104.003 87.9037 102.725 89.9505 104.344 92.3384C107.326 96.0056 111.33 98.223 115.675 99.6728C119.594 101.805 122.831 104.96 126.069 108.031C129.476 111.357 132.714 114.939 136.207 118.265C137.74 119.715 139.274 121.335 141.063 122.444C140.893 125.087 142.171 126.793 144.045 127.731C144.301 131.313 143.789 134.98 143.023 138.562C138.166 132.934 131.521 130.204 126.665 139.671C122.916 146.494 120.957 158.263 126.665 164.574C127.091 165 127.517 165.341 128.028 165.597C125.643 167.729 120.446 171.908 114.482 173.273C114.482 173.273 115.504 174.296 117.634 174.893C115.334 176.343 112.693 179.925 112.778 187.089C107.411 193.485 99.9987 198.005 92.5866 201.843C91.9902 201.672 91.3087 201.416 90.6271 201.246C89.5196 200.99 86.7081 200.308 85.6006 200.052C82.9595 199.625 79.8072 199.199 77.1662 199.199C75.9734 199.114 74.7807 199.114 73.6731 199.114L73.5879 199.199C71.7988 199.967 69.6689 201.075 67.539 202.184C67.2834 202.099 67.1131 202.013 67.1131 202.013C62.0865 199.37 57.1451 196.555 52.4594 193.4C45.6437 188.88 38.9984 183.848 33.5459 177.707C29.2861 172.59 25.6227 166.706 21.7036 161.248C19.9145 158.689 18.2106 156.216 15.9103 153.999C14.8028 152.975 13.6952 151.696 12.0765 151.44C8.15751 151.27 9.35025 161.077 9.86142 163.55C12.5877 176.428 19.9997 187.771 28.7749 197.323C29.5417 198.176 30.3936 198.943 31.2456 199.796C27.4118 198.346 23.578 196.982 19.8293 195.276C16.3363 193.911 3.30134 184.018 0.404681 187.6C-0.19169 188.453 -0.0212993 189.391 0.234288 190.329C0.575072 191.438 1.00105 192.462 1.59742 193.4C6.62398 202.61 17.6143 210.627 28.1785 214.721C25.4523 214.721 22.6408 214.465 19.9997 214.038C18.2106 213.783 16.5067 213.1 14.5472 213.186C13.2693 213.186 11.3949 213.953 11.3098 215.488C11.3098 217.706 13.0137 219.241 14.3768 220.776C18.5514 224.443 24.1743 225.466 29.6269 225.978C29.1157 226.234 28.5193 226.49 27.8378 226.916C23.6632 229.134 23.9187 233.483 27.6674 235.871C31.416 238.259 54.8448 247.981 65.4091 252.16C66.0055 252.416 66.6871 252.672 67.2834 252.928C61.7457 260.603 59.275 270.326 59.8714 279.707C56.2932 282.095 53.9077 286.188 53.3113 290.623C53.0557 290.623 52.8001 290.623 52.6298 290.623C56.2932 280.304 56.4636 268.876 54.93 258.13C54.5893 256.083 54.0781 254.036 53.3113 252.075C52.4594 250.028 51.6926 247.896 49.6479 246.617C47.092 245.167 45.6437 248.322 43.9398 249.602C42.4914 250.796 40.7875 251.734 39.4244 251.393C34.7386 250.54 33.6311 240.476 28.4341 241.756C26.1338 242.694 25.1115 245.082 24.0891 247.128C22.9816 249.516 21.3629 254.122 18.1254 251.734C16.4215 250.625 14.888 249.005 12.9285 248.237C9.69103 246.873 8.15751 249.516 8.07231 252.331C7.81672 257.533 7.90192 262.65 8.3279 267.852C9.43544 280.219 11.9061 292.926 19.233 303.245C23.2372 308.959 29.4565 314.417 37.0389 312.541C37.8909 312.371 38.6576 312.115 39.5096 311.859C41.6395 311.177 43.7694 310.409 45.8141 309.386C50.6702 307.083 54.93 303.33 59.7862 301.454C60.0418 301.369 60.2122 301.284 60.4678 301.198C61.4901 302.136 62.7681 302.648 63.9608 303.16C67.7094 304.695 71.7988 305.121 75.7178 304.866C76.3994 305.377 77.081 305.804 77.8477 306.23C86.8785 311.688 97.7836 312.882 108.092 313.053C114.993 312.968 121.553 311.432 128.454 312.029C134.673 312.285 140.893 312.968 147.027 313.65C150.946 322.86 159.295 331.559 168.326 331.986C174.971 332.327 182.298 326.442 183.576 322.349C186.217 319.534 188.858 316.635 191.584 314.076C193.118 312.797 194.566 311.091 196.611 310.835C204.278 310.238 209.816 304.78 214.928 299.237C216.632 300.175 218.506 300.175 220.38 300.09C224.47 299.834 228.304 298.725 232.052 297.361L233.415 296.849C236.653 297.361 240.061 297.105 243.298 296.081C247.132 294.802 251.221 292.755 253.351 289.003C254.459 287.127 254.203 284.994 252.158 284.056ZM173.693 155.875C173.012 158.945 172.245 162.612 169.604 164.659C164.236 168.497 156.143 163.636 154.098 158.092C152.905 154.851 153.246 151.27 154.609 148.199C156.654 143.679 160.829 140.183 165.429 138.477C167.389 137.795 169.689 137.454 171.137 139.245C174.886 143.765 174.715 150.331 173.693 155.875ZM153.076 158.348C153.076 158.433 153.161 158.519 153.161 158.519C151.457 159.798 149.497 161.333 147.368 161.504C141.148 161.845 140.722 153.231 143.023 149.052C144.982 145.47 150.349 143.935 153.842 146.152C152.139 149.99 151.713 154.254 153.076 158.348ZM104.94 79.2047C104.429 78.2666 103.918 77.4138 104.003 76.3904C104.088 75.7934 104.258 75.1964 103.662 74.5994C102.384 73.6613 100.851 75.8787 100.084 77.0726C100.084 76.9021 100.084 76.7315 100.169 76.5609C101.277 74.0024 103.492 72.1262 105.451 70.1646C110.989 65.3035 114.823 60.5276 116.782 54.5577C117.634 57.7132 119.338 60.6129 122.15 62.0627C120.531 61.8068 118.997 61.0393 117.805 59.9306L117.293 60.6129C117.464 60.7834 117.805 61.1246 118.06 61.2951C119.679 62.745 121.809 63.5978 123.939 63.6831C121.724 69.8235 119.509 75.6228 116.612 79.0342C114.738 81.678 112.182 83.4689 109.455 85.004C108.944 84.2365 108.092 83.5542 107.496 82.7014C106.559 81.5927 105.707 80.3987 104.94 79.2047ZM122.235 48.4173C120.275 50.4641 119.849 55.9223 121.809 60.5276C119.168 58.0544 118.145 53.7902 118.316 50.2083C118.486 46.3705 120.19 40.1448 125.046 41.2535C127.687 42.1916 129.476 45.5177 130.754 48.0762C130.754 48.2467 130.754 48.2467 130.669 48.332C128.88 46.3705 124.109 46.4558 122.235 48.4173ZM128.539 51.9992C128.539 52.0845 128.539 52.2551 128.539 52.3403C128.369 52.7668 128.113 53.1932 127.943 53.6196C127.602 54.046 127.006 54.3019 126.239 54.2166C124.961 54.1313 125.046 52.1698 125.557 51.4875C126.58 50.2083 128.539 51.0611 128.539 51.9992ZM142.767 123.211C149.668 126.281 157.676 124.405 163.981 120.994L163.64 120.226C157.165 122.358 149.668 123.808 143.534 120.482C141.489 119.373 140.041 117.668 138.337 116.047C134.929 112.636 131.606 109.139 127.943 105.984C125.728 104.108 123.428 102.231 120.957 100.782C122.916 101.123 124.876 101.293 126.75 101.379C126.921 101.379 127.176 101.379 127.347 101.379C128.454 103.511 129.988 105.387 131.777 106.922C142.171 116.047 159.039 111.271 167.048 101.123C170.37 97.1143 172.756 92.4237 174.289 87.6478L173.523 87.3067C171.478 91.8267 168.837 96.0909 165.514 99.6728C155.802 110.419 138.592 112.892 128.71 101.379C135.355 101.72 141.915 101.379 148.39 100.27C163.044 97.1996 173.012 83.7248 178.549 70.5911L177.782 70.2499C176.249 73.4054 174.375 76.4757 172.33 79.3753C167.389 86.4539 160.999 93.106 152.905 96.4321C151.287 97.029 149.668 97.5407 147.964 97.7966C136.122 99.3317 122.746 101.975 111.67 96.0909C109.967 94.8969 104.684 91.8267 105.451 89.4388C105.622 89.0976 105.877 88.8418 106.218 88.5859C108.007 89.7799 109.796 90.3769 111.756 90.9739C123.342 94.3 141.233 92.2532 151.968 86.7097L151.542 85.9421C149.923 86.795 148.049 87.4773 146.26 87.989C135.355 91.0592 119.338 92.5943 108.859 87.1361C109.029 87.0508 109.285 86.9656 109.455 86.8803C112.778 85.3452 115.93 83.0425 118.231 80.1429C122.916 74.4288 124.791 67.1797 127.176 60.357C130.328 51.3169 134.929 36.9893 147.282 41.424C150.52 42.618 153.331 45.0912 155.291 47.9056L155.972 47.4792C152.735 43.0444 147.708 39.5478 142.085 39.8036C137.57 39.9742 134.247 42.7033 131.606 46.6263C131.095 43.215 129.476 39.6331 126.154 38.098C122.831 36.8187 119.594 38.3538 117.805 40.9123C117.719 39.2066 117.379 37.4157 116.697 35.8806C118.06 34.8572 123.172 31.787 131.01 32.9809C131.692 33.0662 132.118 32.2987 131.692 31.8722C130.584 30.593 128.71 28.8873 126.069 27.8639C133.395 21.1265 140.296 13.2804 150.69 12.1717L150.775 11.3189C150.52 11.2336 150.349 11.2336 150.094 11.2336C149.071 8.07808 149.071 5.00786 149.242 1.76708C149.242 1.59651 149.327 1.34066 149.327 1.08481C150.009 5.00786 152.053 7.22524 155.035 9.86904C155.632 10.2955 156.739 11.063 157.421 11.1483C157.761 11.1483 156.824 6.03127 157.506 4.32559C157.591 4.24031 157.676 4.15503 157.676 4.06974C157.676 4.06974 157.676 3.98446 157.761 4.06974C158.528 4.58144 158.869 5.60485 159.38 6.54297C161.936 11.5747 168.241 11.4894 172.671 13.7068C174.545 14.4744 176.334 15.3272 178.208 16.18C174.119 18.3974 170.541 21.7235 168.667 26.073C168.496 26.3288 168.326 26.5847 168.155 26.9258L168.837 27.5228C173.523 24.282 178.123 21.5529 183.746 21.7235C185.45 21.7235 186.728 22.0646 187.836 23.1733C190.817 26.4141 192.181 31.7017 193.544 35.9659C194.481 38.8655 196.014 41.5946 197.889 43.9825C201.637 48.5026 206.579 52.1698 210.924 56.0075C212.287 57.1162 213.65 58.3102 214.587 59.8453C218.336 65.9005 218.336 73.4907 217.825 80.484C216.121 79.5459 213.991 78.8636 212.116 79.6311C211.861 79.29 211.605 78.9489 211.264 78.693L209.731 80.9957C210.583 81.4221 211.179 82.6161 211.52 83.6395C211.861 84.6629 212.031 85.8569 212.031 87.0508C209.22 86.6244 206.408 86.7097 203.682 87.5625C194.822 90.6328 188.091 97.7113 182.298 104.875C179.06 109.225 176.079 113.83 174.204 118.947C172.415 124.49 171.393 130.375 171.904 136.174C167.985 133.53 162.958 136.26 159.721 138.818C157.591 140.524 155.802 142.656 154.524 144.959C153.587 143.765 152.053 143.082 150.605 142.912C149.157 142.826 147.794 142.997 146.601 143.338C146.26 142.656 145.834 142.059 145.408 141.462C145.578 139.074 145.749 136.771 145.749 134.383C145.664 132.337 145.578 130.204 145.238 128.158C147.538 128.925 150.435 128.669 152.82 127.561L152.565 126.708C148.22 127.134 144.386 127.049 142.767 123.211ZM125.472 156.045C124.024 149.564 126.835 142.571 131.266 137.88C134.844 134.042 139.274 138.051 142.426 141.888C142.426 141.888 142.426 141.888 142.426 141.974H142.511C143.278 142.826 143.875 143.765 144.471 144.532C140.382 147.346 139.189 153.572 140.978 158.774C141.063 158.945 141.148 159.116 141.233 159.286C138.507 161.845 135.185 164.574 131.351 164.488C127.261 164.233 126.239 159.286 125.472 156.045ZM123.939 174.296C123.939 174.296 123.087 173.955 121.724 173.955C124.279 172.42 128.198 169.606 130.414 166.45C134.503 166.962 139.018 163.38 141.659 160.139C142.852 162.101 145.067 163.38 147.453 163.295C149.923 163.209 151.968 161.93 153.928 160.651C154.78 162.442 155.972 164.147 157.421 165.512C160.999 168.582 166.963 169.691 170.882 166.365C173.863 163.892 174.46 160.054 175.227 156.557C179.146 166.535 185.28 175.575 192.351 183.592C197.718 189.647 204.193 194.594 209.305 200.734C216.802 209.689 224.725 222.226 219.954 234.08C212.883 248.664 193.97 254.122 178.038 256.424C180.85 255.401 183.576 254.207 186.132 252.757C188.943 251.307 192.01 249.346 194.566 247.555L194.14 246.787C191.243 247.981 188.091 249.516 185.195 250.625C173.863 255.23 161.51 258.386 149.157 257.533C160.488 255.401 172.415 251.137 181.02 246.958C186.643 244.229 192.095 241.244 197.037 237.406L196.526 236.724C191.158 239.709 185.621 242.267 179.998 244.655C168.752 249.261 156.995 252.842 145.067 255.401C140.296 256.424 135.355 257.277 130.499 257.192C129.902 257.192 129.306 257.107 128.624 257.021C150.094 249.772 177.271 238.6 193.799 222.311C193.885 222.311 193.884 222.311 193.884 222.311C194.992 221.202 196.1 220.008 197.207 218.814L196.611 218.217C195.503 219.155 194.396 220.094 193.288 220.946C191.499 217.194 189.88 212.93 187.069 209.774C183.917 206.363 181.702 202.269 180.509 197.834L179.657 198.005C180.253 200.308 180.935 202.61 181.872 204.742C183.576 209.007 187.069 212.503 188.262 217.023C188.858 218.985 189.369 221.202 190.136 223.334C189.369 223.846 188.688 224.358 187.921 224.955C187.665 223.675 187.154 221.97 186.302 221.97C185.195 221.97 183.15 221.97 182.042 222.055C182.809 217.45 182.639 209.604 182.639 209.604C174.375 208.41 163.384 208.324 155.035 209.348C142.511 210.798 130.158 214.806 119.849 222.14C119.849 222.14 119.679 222.226 119.594 222.311C117.549 218.644 114.823 215.403 111.756 212.589C110.393 211.309 108.944 210.201 107.496 209.092C109.967 206.107 112.863 203.378 116.015 201.246C116.953 200.564 117.975 199.967 119.083 199.37C123.087 203.548 127.517 206.192 127.517 206.192C127.517 206.192 119.338 198.602 116.953 190.159C114.397 181.801 123.939 174.296 123.939 174.296ZM147.453 235.956C147.453 235.956 158.017 227.087 161.68 224.358C166.366 220.861 180.85 210.883 180.85 210.883C180.764 212.333 180.338 218.217 179.572 223.42C176.079 225.978 167.474 232.46 164.918 234.762C162.277 237.15 153.672 243.717 148.901 246.361C148.39 246.617 147.879 246.873 147.368 247.128L147.453 235.956ZM145.067 234.251C142.937 234.08 139.189 233.909 139.189 233.909C125.472 233.483 110.904 233.995 98.0392 239.197C102.214 236.468 106.388 233.739 110.563 230.925C116.527 227.001 124.961 220.861 131.606 218.217C145.664 212.247 160.317 211.309 175.312 212.247C171.563 215.488 164.748 220.946 160.999 223.59C157.165 226.319 145.067 234.251 145.067 234.251ZM105.196 197.664C108.177 195.788 110.989 193.741 113.63 191.268C114.482 193.741 115.93 196.043 117.634 198.005C112.778 200.308 108.433 203.548 104.684 207.386C101.873 205.595 98.8059 204.06 95.6537 202.866C98.8911 201.331 102.043 199.54 105.196 197.664ZM31.3308 225.04C31.2456 225.04 31.1604 225.125 31.0752 225.125C24.8559 224.614 16.1659 222.993 13.6952 216.512C13.61 216.256 13.61 216 13.61 215.915C15.4844 215.744 17.6142 216.512 19.5738 216.682C23.152 217.023 26.9006 216.853 30.3084 215.488C31.6716 216 33.0347 216.341 34.3978 216.682L34.5682 215.829C22.5556 213.271 5.68682 201.843 2.0234 189.732L1.93821 189.221C1.93821 189.05 1.93821 188.88 1.93821 188.794C2.36419 188.794 2.70497 188.965 3.13095 189.136C6.79437 190.926 9.94662 193.741 13.5248 195.958C19.233 199.625 26.3042 201.246 33.0347 201.502C36.1018 204.231 39.3392 206.789 42.9174 208.836L43.3434 208.154C38.402 204.657 33.9719 200.564 29.8825 196.129C20.8517 186.065 10.2022 170.544 10.8838 156.557C10.969 155.448 11.0542 153.913 11.7357 153.06C12.0765 153.06 12.5025 153.402 12.7581 153.657C14.2916 155.193 15.1436 157.325 16.4215 159.116C21.4481 166.791 26.0486 174.978 32.6087 181.46C38.1465 186.833 44.6213 191.268 51.1814 195.105C56.1228 197.92 61.0641 200.478 66.3463 202.61C65.2387 203.122 64.2164 203.719 63.2792 204.145C52.8853 209.518 42.6618 215.318 32.2679 220.691L31.3308 225.04ZM39.68 232.033C36.9537 230.839 35.335 229.816 34.3978 228.963C34.3126 225.637 35.0794 222.396 35.4202 221.202C49.4775 223.59 63.1088 228.878 75.1215 236.468C79.2961 239.027 83.2151 242.097 87.1341 245.167L87.7305 244.57C84.2374 241.073 80.4036 237.491 76.3142 234.762C64.6424 226.575 50.1591 221.032 35.8462 220.179C38.7428 218.985 41.6395 217.62 44.451 216.17C51.1814 212.844 57.9119 209.348 64.472 205.595C67.2834 203.975 71.2877 201.672 74.0991 199.881C76.229 200.308 78.4441 200.478 80.574 200.905C81.5964 201.161 84.4078 201.758 85.4302 201.928C86.4525 202.269 89.0936 203.037 90.2011 203.293C91.2235 203.634 93.8646 204.657 94.8017 204.998C104.003 208.921 112.522 214.891 118.742 222.823C114.397 225.808 98.8059 236.894 92.4162 241.756C91.3939 242.353 90.4567 243.035 89.5196 243.888L89.8604 244.314C91.0531 243.547 92.331 242.694 93.5238 241.926C106.985 235.103 124.365 235.018 139.104 236.042L144.726 236.553L145.919 247.384C141.233 248.237 122.576 249.858 114.908 250.54C106.814 251.222 90.9679 251.563 87.2193 251.478C83.4707 251.393 78.7849 248.834 75.2919 247.384C71.7136 246.02 47.4328 235.359 39.68 232.033ZM51.863 303.33C50.0739 304.524 48.37 305.718 46.4957 306.827C47.944 305.121 49.0515 303.16 49.5627 300.943L48.7107 300.687C46.4105 306.23 41.0431 309.727 35.1646 310.068C22.8964 310.835 14.6324 289.344 12.5877 279.366C11.0542 271.434 9.94662 263.332 9.77623 255.316C9.43544 247.725 11.5653 248.067 15.6547 253.525C19.3182 257.789 24.1743 255.827 25.7931 250.966C26.7302 248.578 26.7302 244.826 29.0305 243.376C31.3308 242.864 32.6087 247.299 33.8015 249.261C34.9942 251.307 36.5277 253.269 38.9984 253.781C42.747 254.548 45.3881 251.052 47.1772 248.408C47.6884 247.811 48.1996 247.384 48.9663 247.811C52.8853 250.966 52.9705 259.58 52.9705 264.356C52.9705 267.938 53.1409 273.055 52.8853 276.466C52.715 282.521 51.6074 288.406 50.1591 294.376L50.9258 294.632C51.437 293.608 51.863 292.499 52.2038 291.476C54.6745 291.732 57.2303 291.647 59.6158 290.623C60.2974 290.282 60.979 289.856 61.5753 289.259C65.4091 290.282 66.7723 295.143 66.8575 298.981C61.4049 297.872 56.208 300.175 51.863 303.33ZM182.298 321.411C180.253 325.078 173.438 330.877 168.411 330.792C160.232 330.621 154.183 322.86 150.52 315.611C148.731 311.859 147.368 307.765 146.175 303.672C143.534 294.546 141.148 284.994 142.426 275.528C142.767 272.202 143.704 265.635 147.623 270.837C149.071 272.884 150.094 274.846 152.735 275.869C154.183 276.551 156.569 275.869 157.506 274.59C159.977 271.69 159.295 268.108 160.658 264.867C162.362 260.944 164.918 265.635 165.685 267.682C166.707 269.814 167.985 272.117 170.285 273.14C172.841 274.505 176.079 272.714 177.357 270.496C178.038 269.473 178.464 268.449 178.89 267.426C179.486 265.806 180.168 263.162 182.127 263.588C186.132 265.72 186.132 273.566 186.387 277.66L186.813 284.056C187.324 292.499 188.176 301.113 186.728 309.556C186.046 313.82 184.172 317.743 182.298 321.411ZM196.44 307.85C196.1 307.936 195.759 307.936 195.418 308.021C193.118 308.703 191.414 310.324 189.795 311.944C188.517 313.223 187.41 314.588 186.302 316.038C186.898 313.906 187.41 311.774 187.921 309.641C188.773 305.718 189.54 301.71 189.966 297.702C193.118 297.531 194.481 298.469 196.014 301.113C197.292 303.245 197.378 305.633 196.44 307.85ZM214.076 298.555C210.838 301.966 207.005 304.866 202.83 306.315C201.382 306.912 199.848 307.168 198.315 307.424C199.678 305.121 199.763 302.051 198.485 299.663C198.144 298.981 197.463 298.043 197.037 297.361C195.503 295.229 192.266 294.717 190.051 296.081C190.647 289.77 190.562 283.374 189.54 277.063C188.688 272.543 187.324 264.1 182.553 262.138C179.827 261.371 178.294 264.697 177.357 266.488C176.419 268.023 175.056 269.814 173.523 270.411C169.859 271.605 167.644 266.061 165.599 263.759C163.555 261.115 161.084 260.859 159.21 263.844C157.591 266.317 156.995 269.814 154.95 271.946C154.694 272.202 154.524 272.202 154.439 272.287C153.587 272.372 152.735 271.775 151.798 271.093C149.923 269.729 148.56 267.938 146.26 267.085C141.745 265.806 141.233 272.117 140.722 275.102C138.763 287.127 142.171 299.152 145.919 310.409C146.175 311.091 146.43 311.688 146.601 312.285C140.637 311.006 134.673 309.983 128.624 309.386C121.894 308.533 114.823 309.727 108.092 309.812C94.9721 309.386 80.4888 307.765 70.4357 298.384L70.1801 299.152H70.0949C71.2877 300.772 72.736 302.222 74.2695 303.501C70.6061 303.16 66.9427 302.137 63.9608 300.09C65.1535 299.919 66.3463 299.834 67.539 299.834L67.7094 299.322C68.391 293.523 66.6019 286.615 59.6158 286.359C59.6158 286.359 59.701 287.638 59.7862 288.321C58.7639 289.173 57.5711 289.685 56.208 290.026C56.4636 286.188 58.2527 282.18 61.4901 280.048C62.6829 279.195 64.1312 278.598 65.5795 278.172L65.4091 277.319C63.9608 277.489 62.5977 277.916 61.4049 278.598C61.4901 277.831 61.6605 276.978 61.8309 276.21C63.62 268.194 67.8798 260.518 74.4399 255.486C80.6592 257.874 85.6006 259.58 89.4344 259.836C94.7165 260.177 118.997 258.215 126.409 257.192C128.028 258.045 129.732 258.471 131.436 258.642C135.611 259.068 140.211 258.812 145.067 258.13C147.368 258.983 149.838 259.409 152.309 259.75C159.38 260.518 166.451 259.75 173.267 257.789C187.154 257.363 201.467 254.889 213.054 246.787C216.291 244.57 218.677 242.097 220.551 239.538C222.766 242.779 224.811 246.105 226.515 249.602C230.945 258.301 232.223 266.403 229.326 275.699C226.77 284.568 220.38 291.988 214.076 298.555ZM250.966 287.638C246.962 293.693 237.164 296.167 230.263 294.973L230.008 295.826C230.519 295.996 230.945 296.081 231.456 296.252C227.878 297.105 224.129 297.787 220.551 297.531C219.443 297.446 218.165 297.275 217.228 296.849C218.08 295.911 218.847 295.058 219.699 294.205C224.555 289.003 229.411 283.63 231.967 276.722C232.393 275.528 232.734 274.419 233.075 273.311C236.568 279.536 243.043 283.63 249.603 286.188C250.199 286.444 250.795 286.615 251.136 286.956C251.136 287.127 251.051 287.468 250.966 287.638Z" fill="#1F1F1F"/>
<path d="M184.939 71.0178L185.705 70.762C184.939 69.1416 183.916 67.6917 182.383 66.6683C176.589 63.0011 173.522 69.9091 168.751 70.762C162.873 71.2737 159.465 61.9777 157.42 57.543L156.568 57.7135C156.739 59.4192 157.165 61.1249 157.676 62.8306C159.124 67.0095 161.425 71.8706 166.025 73.3205C168.07 73.9174 170.2 73.4057 171.904 72.2118C174.034 70.7619 175.397 68.2034 177.527 67.0947C180.594 65.4744 184.087 68.1182 184.939 71.0178Z" fill="#1F1F1F"/>
<path d="M149.071 57.2018C147.878 58.5664 147.111 60.6985 147.793 63.0011C148.475 65.3038 151.201 65.6449 152.223 61.1249C153.331 56.6049 150.008 56.1784 149.071 57.2018Z" fill="#1F1F1F"/>
<path d="M167.73 60.6984C168.497 61.0396 169.263 61.2954 170.115 61.466C170.286 61.5513 170.541 61.5513 170.797 61.6365C175.312 62.4894 179.913 61.3807 184.087 59.675L183.15 57.6282C182.128 58.1399 181.106 58.6516 179.998 59.078C185.365 55.155 188.944 47.5647 188.347 41.2537C187.921 32.5548 177.698 25.1351 170.456 31.8725C166.878 35.1986 165.174 39.3775 163.896 43.7269C161.766 49.3557 162.107 57.2018 167.73 60.6984ZM172.927 52.4259C171.904 51.8289 171.308 49.6115 171.819 49.0998C173.012 48.0764 174.886 49.6968 175.142 51.1466C175.397 52.5965 173.949 53.0229 172.927 52.4259ZM163.896 46.3707C164.578 43.0447 166.452 40.0597 168.667 37.5865C170.967 35.028 174.631 32.6401 177.953 34.0899C181.191 35.4544 183.491 38.3541 184.343 41.8507C185.11 44.7504 184.854 48.1617 183.576 51.1466C182.554 53.7904 180.594 56.3489 178.124 58.0546C180.935 54.7286 180.168 48.9293 179.316 46.6266C178.209 43.5564 174.972 40.9979 170.201 42.1918C166.708 43.0447 164.492 45.859 163.64 47.2236C163.811 46.8824 163.811 46.6266 163.896 46.3707Z" fill="#1F1F1F"/>
</svg>
