<svg xmlns="http://www.w3.org/2000/svg" style="display: none;">
    <symbol viewBox="0 0 16 16" id="questions-stroked-circle-16" fill="none">
        <circle cx="8" cy="8" r="6.5" stroke="currentColor"/>
        <path d="M9.0411 7.71404L9.25402 8.16645L9.25402 8.16644L9.0411 7.71404ZM5.5 6.14286C5.5 6.419 5.72386 6.64286 6 6.64286C6.27614 6.64286 6.5 6.419 6.5 6.14286H5.5ZM7.5 9C7.5 9.27614 7.72386 9.5 8 9.5C8.27614 9.5 8.5 9.27614 8.5 9H7.5ZM9.5 6.14286C9.5 6.7208 9.23095 7.07208 8.82818 7.26164L9.25402 8.16644C10.0014 7.81471 10.5 7.1146 10.5 6.14286H9.5ZM6.5 6.14286C6.5 5.20248 7.2035 4.5 8 4.5V3.5C6.58736 3.5 5.5 4.7163 5.5 6.14286H6.5ZM8 4.5C8.7965 4.5 9.5 5.20248 9.5 6.14286H10.5C10.5 4.7163 9.41264 3.5 8 3.5V4.5ZM8.82818 7.26164C8.24983 7.53384 7.5 8.10203 7.5 9H8.5C8.5 8.7145 8.76157 8.39821 9.25402 8.16645L8.82818 7.26164Z" fill="currentColor"/>
        <circle cx="8" cy="11" r="0.75" fill="currentColor"/>
    </symbol>
    <symbol viewBox="0 0 16 16" id="check-filled-square-16" fill="none">
        <rect width="16" height="16" rx="4" fill="currentColor"/>
        <path d="M3 7L7 12L13 4" stroke="white" stroke-width="2" stroke-linecap="round" stroke-linejoin="round"/>
    </symbol>
    <symbol viewBox="0 0 16 16" id="chevron-up-16" fill="none">
        <path d="M5 9L8 6L11 9" stroke="currentColor" stroke-width="1.5" stroke-linecap="round" stroke-linejoin="round"/>
    </symbol>
    <symbol viewBox="0 0 16 16" id="chevron-down-16" fill="none">
        <path d="M11 7L8 10L5 7" stroke="currentColor" stroke-width="1.5" stroke-linecap="round" stroke-linejoin="round"/>
    </symbol>
    <symbol viewBox="0 0 16 16" id="chevron-right-16" fill="none">
        <path d="M7 5L10 8L7 11" stroke="currentColor" stroke-linecap="round" stroke-linejoin="round"/>
    </symbol>
    <symbol viewBox="0 0 24 24" id="chevron-left-24" fill="none">
        <path d="M14 18L8 12L14 6" stroke="currentColor" stroke-width="1.5" stroke-linecap="round" stroke-linejoin="round"/>
    </symbol>
    <symbol viewBox="0 0 16 16" id="audio-16" fill="none">
        <path fill-rule="evenodd" clip-rule="evenodd" d="M4.10764 7.07436C5.1947 7.34581 6 8.32886 6 9.5V11.5C6 12.8807 4.88071 14 3.5 14C2.11929 14 1 12.8807 1 11.5V9.5C1 8.67229 1.40224 7.93853 2.02192 7.48354C2.28381 4.41162 4.86027 2 8 2C11.1397 2 13.7162 4.41162 13.9781 7.48354C14.5978 7.93853 15 8.67229 15 9.5V11.5C15 12.8807 13.8807 14 12.5 14C11.1193 14 10 12.8807 10 11.5V9.5C10 8.32886 10.8053 7.34581 11.8924 7.07436C11.4747 5.31153 9.89052 4 8 4C6.10948 4 4.52529 5.31153 4.10764 7.07436Z" fill="currentColor"/>
    </symbol>
    <symbol viewBox="0 0 24 24" id="audio-stroked-24" fill="none">
        <path d="M21.25 17C21.25 17.4142 21.5858 17.75 22 17.75C22.4142 17.75 22.75 17.4142 22.75 17H21.25ZM1.25 17C1.25 17.4142 1.58579 17.75 2 17.75C2.41421 17.75 2.75 17.4142 2.75 17H1.25ZM21.25 13V17H22.75V13H21.25ZM2.75 17V13H1.25V17H2.75ZM12 3.75C17.1086 3.75 21.25 7.89137 21.25 13H22.75C22.75 7.06294 17.9371 2.25 12 2.25V3.75ZM12 2.25C6.06294 2.25 1.25 7.06294 1.25 13H2.75C2.75 7.89137 6.89137 3.75 12 3.75V2.25ZM9.25 15.5V18.5H10.75V15.5H9.25ZM5.75 18.5V15.5H4.25V18.5H5.75ZM7.5 20.25C6.5335 20.25 5.75 19.4665 5.75 18.5H4.25C4.25 20.2949 5.70507 21.75 7.5 21.75V20.25ZM9.25 18.5C9.25 19.4665 8.4665 20.25 7.5 20.25V21.75C9.29493 21.75 10.75 20.2949 10.75 18.5H9.25ZM7.5 13.75C8.4665 13.75 9.25 14.5335 9.25 15.5H10.75C10.75 13.7051 9.29493 12.25 7.5 12.25V13.75ZM7.5 12.25C5.70507 12.25 4.25 13.7051 4.25 15.5H5.75C5.75 14.5335 6.5335 13.75 7.5 13.75V12.25ZM18.25 15.5V18.5H19.75V15.5H18.25ZM14.75 18.5V15.5H13.25V18.5H14.75ZM16.5 20.25C15.5335 20.25 14.75 19.4665 14.75 18.5H13.25C13.25 20.2949 14.7051 21.75 16.5 21.75V20.25ZM18.25 18.5C18.25 19.4665 17.4665 20.25 16.5 20.25V21.75C18.2949 21.75 19.75 20.2949 19.75 18.5H18.25ZM16.5 13.75C17.4665 13.75 18.25 14.5335 18.25 15.5H19.75C19.75 13.7051 18.2949 12.25 16.5 12.25V13.75ZM16.5 12.25C14.7051 12.25 13.25 13.7051 13.25 15.5H14.75C14.75 14.5335 15.5335 13.75 16.5 13.75V12.25Z" fill="currentColor"/>
    </symbol>
    <symbol viewBox="0 0 16 16" id="book-16" fill="none">
        <path fill-rule="evenodd" clip-rule="evenodd" d="M13.666 11L13.666 2C13.666 1.44772 13.2183 1 12.666 1H5.66602C4.56145 1 3.66602 1.89543 3.66602 3V13C3.66602 14.1046 4.56145 15 5.66602 15L12.666 15C13.2183 15 13.666 14.5523 13.666 14L13.666 13H6.66602C6.11373 13 5.66602 12.5523 5.66602 12C5.66602 11.4477 6.11373 11 6.66602 11H13.666Z" fill="currentColor"/>
    </symbol>
    <symbol viewBox="0 0 24 24" id="book-stroked-24" fill="none">
        <path d="M19 22H7C5.89543 22 5 21.1046 5 20V20C5 18.8954 5.89543 18 7 18H19V3C19 2.44772 18.5523 2 18 2H7C5.89543 2 5 2.89543 5 4V20" stroke="currentColor" stroke-width="1.5" stroke-linecap="round"/>
    </symbol>
    <symbol viewBox="0 0 24 24" id="arrow-stroked-right-24" fill="none">
        <path d="M10 6L16 12L10 18" stroke="red" stroke-width="1.5" stroke-linecap="round" stroke-linejoin="round"/>
    </symbol>
    <symbol viewBox="0 0 28 28" id="logo-vk-28" fill="none">
        <path fill-rule="evenodd" clip-rule="evenodd" d="M1.96482 1.96482C0 3.92965 0 7.09199 0 13.4167V14.5833C0 20.908 0 24.0704 1.96482 26.0352C3.92963 28 7.09197 28 13.4166 28H14.5833C20.9079 28 24.0703 28 26.0351 26.0352C27.9999 24.0704 27.9999 20.908 27.9999 14.5833V13.4167C27.9999 7.09199 27.9999 3.92965 26.0351 1.96482C24.0703 0 20.9079 0 14.5833 0H13.4166C7.09197 0 3.92963 0 1.96482 1.96482ZM6.12498 9.625C6.25287 15.637 9.32214 19.25 14.7033 19.25H15.0083V15.8104C16.9857 16.0031 18.4809 17.4194 19.081 19.25H21.8749C21.1076 16.5138 19.0908 15.0011 17.8316 14.423C19.0908 13.7101 20.8616 11.9759 21.2846 9.625H18.7464C18.1955 11.5327 16.5627 13.2669 15.0083 13.4307V9.625H12.4702V16.2922C10.8961 15.9068 8.90901 14.0377 8.82047 9.625H6.12498Z" fill="currentColor"/>
    </symbol>
    <symbol viewBox="0 0 28 28" id="logo-telegram-28" fill="none">
        <path fill-rule="evenodd" clip-rule="evenodd" d="M1.96482 1.96482C0 3.92965 0 7.09199 0 13.4167V14.5833C0 20.908 0 24.0704 1.96482 26.0352C3.92965 28 7.09199 28 13.4167 28H14.5833C20.908 28 24.0704 28 26.0352 26.0352C28 24.0704 28 20.908 28 14.5833V13.4167C28 7.09199 28 3.92965 26.0352 1.96482C24.0704 0 20.908 0 14.5833 0H13.4167C7.09199 0 3.92965 0 1.96482 1.96482ZM14.379 9.72944C13.0552 10.2801 10.4093 11.4198 6.44134 13.1485C5.79701 13.4048 5.45948 13.6554 5.42875 13.9005C5.37682 14.3148 5.89555 14.4779 6.60193 14.7C6.69801 14.7302 6.79756 14.7615 6.89963 14.7947C7.59459 15.0206 8.52943 15.2849 9.01542 15.2954C9.45626 15.3049 9.94828 15.1232 10.4915 14.7501C14.1988 12.2476 16.1126 10.9827 16.2328 10.9554C16.3175 10.9362 16.435 10.912 16.5146 10.9827C16.5942 11.0534 16.5863 11.1874 16.5779 11.2233C16.5265 11.4424 14.4903 13.3354 13.4366 14.3151C13.1081 14.6205 12.8751 14.8371 12.8274 14.8866C12.7207 14.9974 12.612 15.1023 12.5075 15.203C11.8618 15.8254 11.3777 16.2921 12.5343 17.0543C13.0901 17.4206 13.5348 17.7235 13.9786 18.0257C14.4631 18.3557 14.9465 18.6848 15.5718 19.0947C15.7311 19.1992 15.8833 19.3076 16.0315 19.4133C16.5954 19.8153 17.1021 20.1765 17.728 20.1189C18.0917 20.0855 18.4674 19.7435 18.6582 18.7235C19.1091 16.3129 19.9955 11.09 20.2003 8.93777C20.2182 8.74921 20.1957 8.50788 20.1775 8.40195C20.1594 8.29601 20.1215 8.14508 19.9838 8.03334C19.8207 7.90102 19.569 7.87311 19.4564 7.8751C18.9444 7.88411 18.159 8.15722 14.379 9.72944Z" fill="currentColor"/>
    </symbol>
    <symbol viewBox="0 0 16 16" id="star-filled-16" fill="none">
        <path d="M7.77081 2.5633C8.00915 1.81223 8.99086 1.81223 9.22919 2.5633L10.1413 5.43756C10.2482 5.77456 10.5412 6.00086 10.8705 6.00086H13.7276C14.4847 6.00086 14.7883 7.05834 14.1644 7.52247L11.9274 9.18657C11.6422 9.39877 11.5226 9.79064 11.635 10.1449L12.5065 12.8911C12.7479 13.6517 11.9529 14.305 11.3405 13.8495L8.9368 12.0613C8.67369 11.8655 8.32631 11.8655 8.0632 12.0613L5.65947 13.8495C5.04708 14.305 4.25215 13.6517 4.49348 12.8911L5.36495 10.1449C5.47736 9.79064 5.3578 9.39877 5.07256 9.18657L2.83562 7.52247C2.21173 7.05834 2.5153 6.00086 3.27242 6.00086H6.12953C6.45884 6.00086 6.75178 5.77456 6.85872 5.43756L7.77081 2.5633Z" fill="currentColor" stroke="#818C99"/>
    </symbol>
    <symbol viewBox="0 0 16 16" id="bookmark-filled-check-16" fill="none">
        <path fill-rule="evenodd" clip-rule="evenodd" d="M6.39555 0.25H9.60445H9.60447C10.1764 0.249989 10.6546 0.249979 11.0453 0.284742C11.4544 0.321137 11.8359 0.399911 12.1938 0.598496C12.7425 0.902903 13.177 1.38186 13.4458 1.95615C13.6175 2.32323 13.6864 2.71396 13.7187 3.14469C13.75 3.56197 13.75 4.07556 13.75 4.70436V15C13.75 15.2724 13.6023 15.5233 13.3642 15.6556C13.1261 15.7879 12.835 15.7807 12.6038 15.6368L8 12.7722L3.39623 15.6368C3.16497 15.7807 2.87387 15.7879 2.63577 15.6556C2.39767 15.5233 2.25 15.2724 2.25 15V4.70438V4.70437C2.24999 4.07557 2.24999 3.56197 2.2813 3.14469C2.31362 2.71396 2.38248 2.32323 2.55425 1.95615C2.82298 1.38186 3.2575 0.902903 3.80616 0.598496C4.16409 0.399911 4.5456 0.321137 4.95469 0.284742C5.34544 0.249979 5.8236 0.249989 6.39554 0.25H6.39555ZM11.5575 5.50172C11.8346 5.19384 11.8096 4.71962 11.5017 4.44253C11.1938 4.16544 10.7196 4.19039 10.4425 4.49828L7.38228 7.89856L5.54104 5.9806C5.25418 5.68179 4.77941 5.6721 4.4806 5.95896C4.18179 6.24582 4.1721 6.72059 4.45896 7.0194L6.85896 9.5194C7.00329 9.66975 7.20368 9.75326 7.41207 9.7499C7.62045 9.74655 7.81805 9.65664 7.95747 9.50172L11.5575 5.50172Z" fill="currentColor"/>
    </symbol>
    <symbol viewBox="0 0 16 16" id="bookmark-stroked-16" fill="none">
        <path d="M13 15L12.6038 15.6368C12.835 15.7807 13.1261 15.7879 13.3642 15.6556C13.6023 15.5233 13.75 15.2724 13.75 15H13ZM3 15H2.25C2.25 15.2724 2.39767 15.5233 2.63577 15.6556C2.87387 15.7879 3.16496 15.7807 3.39623 15.6368L3 15ZM8 11.8889L8.39623 11.2521C8.15364 11.1012 7.84636 11.1012 7.60377 11.2521L8 11.8889ZM11.83 1.25432L12.1938 0.598495L11.83 1.25432ZM12.7664 2.27402L13.4458 1.95615L12.7664 2.27402ZM4.17002 1.25432L3.80616 0.598495H3.80616L4.17002 1.25432ZM3.23356 2.27402L2.55425 1.95615H2.55425L3.23356 2.27402ZM6.42857 1.75H9.57143V0.25H6.42857V1.75ZM12.25 4.73333V15H13.75V4.73333H12.25ZM3.75 15V4.73333H2.25V15H3.75ZM13.3962 14.3632L8.39623 11.2521L7.60377 12.5257L12.6038 15.6368L13.3962 14.3632ZM7.60377 11.2521L2.60377 14.3632L3.39623 15.6368L8.39623 12.5257L7.60377 11.2521ZM9.57143 1.75C10.1849 1.75 10.596 1.75069 10.9124 1.77884C11.218 1.80602 11.3657 1.85441 11.4661 1.91014L12.1938 0.598495C11.8359 0.399909 11.4544 0.321135 11.0453 0.28474C10.6471 0.249309 10.158 0.25 9.57143 0.25V1.75ZM13.75 4.73333C13.75 4.09131 13.7505 3.56836 13.7187 3.14469C13.6864 2.71396 13.6175 2.32323 13.4458 1.95615L12.0871 2.59189C12.1489 2.72394 12.1968 2.90947 12.2229 3.25692C12.2495 3.61143 12.25 4.06856 12.25 4.73333H13.75ZM11.4661 1.91014C11.7239 2.05314 11.945 2.2881 12.0871 2.59189L13.4458 1.95615C13.177 1.38185 12.7425 0.902901 12.1938 0.598495L11.4661 1.91014ZM6.42857 0.25C5.84198 0.25 5.35294 0.249309 4.95469 0.28474C4.5456 0.321135 4.16409 0.399909 3.80616 0.598495L4.53388 1.91014C4.63434 1.85441 4.78204 1.80602 5.08761 1.77884C5.40401 1.75069 5.81505 1.75 6.42857 1.75V0.25ZM3.75 4.73333C3.75 4.06856 3.75049 3.61143 3.77709 3.25692C3.80316 2.90947 3.85108 2.72394 3.91287 2.59189L2.55425 1.95615C2.38248 2.32323 2.31362 2.71396 2.2813 3.14469C2.24951 3.56836 2.25 4.09131 2.25 4.73333H3.75ZM3.80616 0.598495C3.2575 0.902901 2.82298 1.38185 2.55425 1.95615L3.91287 2.59189C4.05502 2.2881 4.27613 2.05314 4.53388 1.91014L3.80616 0.598495Z" fill="currentColor"/>
    </symbol>
    <symbol viewBox="0 0 16 16" id="pencil-stroked-16" fill="none">
        <path d="M3 10L11 2L14 5L6 13H3V10Z" stroke="currentColor" stroke-linejoin="round"/>
        <path d="M9 4L12 7" stroke="currentColor" stroke-linejoin="round"/>
    </symbol>
    <symbol viewBox="0 0 16 16" id="check-stroked-16" fill="none">
        <path d="M2 7.55556L6.36364 12L14 4" stroke="currentColor" stroke-linecap="round" stroke-linejoin="round"/>
    </symbol>
    <symbol viewBox="0 0 16 16" id="eye-filled-16" fill="none">
        <path fill-rule="evenodd" clip-rule="evenodd" d="M1.01527 8.15958C1.04237 8.27837 1.09079 8.35539 1.18763 8.50941C1.98789 9.78226 4.36992 13 8 13C11.6301 13 14.0121 9.78226 14.8124 8.50941L14.8124 8.5094C14.9092 8.35538 14.9576 8.27837 14.9847 8.15958C15.0051 8.07036 15.0051 7.92964 14.9847 7.84042C14.9576 7.72163 14.9092 7.64462 14.8124 7.49059L14.8124 7.49059C14.0121 6.21774 11.6301 3 8 3C4.36992 3 1.98789 6.21774 1.18763 7.49059C1.09079 7.64462 1.04237 7.72163 1.01527 7.84042C0.99491 7.92964 0.99491 8.07036 1.01527 8.15958ZM8 10C9.10457 10 10 9.10457 10 8C10 6.89543 9.10457 6 8 6C6.89543 6 6 6.89543 6 8C6 9.10457 6.89543 10 8 10Z" fill="currentColor"/>
    </symbol>
    <symbol viewBox="0 0 16 16" id="bookmark-filled-16" fill="none">
        <path d="M3 5.2C3 4.0799 3 3.51984 3.23356 3.09202C3.439 2.71569 3.76682 2.40973 4.17002 2.21799C4.6284 2 5.22846 2 6.42857 2H9.57143C10.7715 2 11.3716 2 11.83 2.21799C12.2332 2.40973 12.561 2.71569 12.7664 3.09202C13 3.51984 13 4.0799 13 5.2V14L8 11L3 14V5.2Z" fill="currentColor"/>
    </symbol>
    <symbol viewBox="0 0 16 16" id="message-filled-16" fill="none">
        <path fill-rule="evenodd" clip-rule="evenodd" d="M14 8C14 11.3137 11.3137 14 8 14C7.2019 14 6.4402 13.8442 5.74366 13.5613C5.61035 13.5072 5.54369 13.4801 5.48981 13.468C5.43711 13.4562 5.3981 13.4519 5.34409 13.4519C5.28887 13.4519 5.22872 13.4619 5.10843 13.4819L2.73651 13.8772C2.48812 13.9186 2.36393 13.9393 2.27412 13.9008C2.19552 13.8671 2.13289 13.8045 2.09917 13.7259C2.06065 13.6361 2.08135 13.5119 2.12275 13.2635L2.51807 10.8916C2.53812 10.7713 2.54814 10.7111 2.54814 10.6559C2.54813 10.6019 2.54381 10.5629 2.532 10.5102C2.51992 10.4563 2.49285 10.3897 2.43871 10.2563C2.15582 9.5598 2 8.7981 2 8C2 4.68629 4.68629 2 8 2C11.3137 2 14 4.68629 14 8ZM5.25 7C5.25 6.58579 5.58579 6.25 6 6.25H10C10.4142 6.25 10.75 6.58579 10.75 7C10.75 7.41421 10.4142 7.75 10 7.75H6C5.58579 7.75 5.25 7.41421 5.25 7ZM7 9.25C6.58579 9.25 6.25 9.58579 6.25 10C6.25 10.4142 6.58579 10.75 7 10.75H9C9.41421 10.75 9.75 10.4142 9.75 10C9.75 9.58579 9.41421 9.25 9 9.25H7Z" fill="currentColor"/>
    </symbol>
    <symbol viewBox="0 0 24 24" id="message-stroked-24" fill="none">
        <path d="M7.5 12H7.51M12 12H12.01M16.5 12H16.51M12 21C16.9706 21 21 16.9706 21 12C21 7.02944 16.9706 3 12 3C7.02944 3 3 7.02944 3 12C3 13.1971 3.23374 14.3397 3.65806 15.3845C3.73927 15.5845 3.77988 15.6845 3.798 15.7653C3.81572 15.8443 3.8222 15.9028 3.82221 15.9839C3.82222 16.0667 3.80718 16.1569 3.77711 16.3374L3.18413 19.8952C3.12203 20.2678 3.09098 20.4541 3.14876 20.5888C3.19933 20.7067 3.29328 20.8007 3.41118 20.8512C3.54589 20.909 3.73218 20.878 4.10476 20.8159L7.66265 20.2229C7.84309 20.1928 7.9333 20.1778 8.01613 20.1778C8.09715 20.1778 8.15566 20.1843 8.23472 20.202C8.31554 20.2201 8.41552 20.2607 8.61549 20.3419C9.6603 20.7663 10.8029 21 12 21ZM8 12C8 12.2761 7.77614 12.5 7.5 12.5C7.22386 12.5 7 12.2761 7 12C7 11.7239 7.22386 11.5 7.5 11.5C7.77614 11.5 8 11.7239 8 12ZM12.5 12C12.5 12.2761 12.2761 12.5 12 12.5C11.7239 12.5 11.5 12.2761 11.5 12C11.5 11.7239 11.7239 11.5 12 11.5C12.2761 11.5 12.5 11.7239 12.5 12ZM17 12C17 12.2761 16.7761 12.5 16.5 12.5C16.2239 12.5 16 12.2761 16 12C16 11.7239 16.2239 11.5 16.5 11.5C16.7761 11.5 17 11.7239 17 12Z" stroke="currentColor" stroke-width="1.5" stroke-linecap="round" stroke-linejoin="round"/>
    </symbol>
    <symbol viewBox="0 0 16 16" id="like-filled-16" fill="none">
        <path fill-rule="evenodd" clip-rule="evenodd" d="M7.99521 5.19239C7.3 2.90893 4.26182 2.37745 2.50829 3.74744C0.754751 5.11743 0.507878 7.40799 1.88494 9.02829C2.76695 10.0661 5.02582 11.9906 6.53593 13.2402C7.03776 13.6554 7.28867 13.863 7.58922 13.9463C7.84758 14.0179 8.14283 14.0179 8.40119 13.9463C8.70174 13.863 8.95265 13.6554 9.45448 13.2402C10.9646 11.9906 13.2235 10.0661 14.1055 9.02829C15.4825 7.40799 15.2658 5.10302 13.4821 3.74744C11.6984 2.39186 8.7 2.90893 7.99521 5.19239Z" fill="currentColor"/>
    </symbol>
    <symbol viewBox="0 0 16 16" id="like-stroked-16" fill="none">
     <path fill-rule="evenodd" clip-rule="evenodd" d="M7.99172 6.091C7.3275 6.08976 6.74319 5.65183 6.55559 5.01465C6.33355 4.26049 5.74529 3.76424 4.96301 3.5767C4.15235 3.38235 3.27137 3.56138 2.66641 4.05013C1.29055 5.1617 1.14176 6.92057 2.1702 8.17192C3.07573 9.27373 5.5388 11.4536 7.302 12.9623C7.60677 13.2231 7.7691 13.3605 7.89499 13.4517C7.92741 13.4752 7.94972 13.4898 7.96345 13.4983C7.98263 13.5006 8.00641 13.5006 8.02559 13.4983C8.03933 13.4898 8.06163 13.4752 8.09405 13.4517C8.21994 13.3605 8.38227 13.2231 8.68704 12.9623C10.4502 11.4536 12.9133 9.27373 13.8188 8.17192C14.8616 6.90318 14.7116 5.14193 13.3384 4.06271C12.7062 3.56588 11.8172 3.3918 11.0163 3.58329C10.2451 3.7677 9.65944 4.25754 9.43186 5.02001C9.24189 5.65649 8.65595 6.09224 7.99172 6.091ZM7.0453 3.03448C5.64998 1.72129 3.25712 1.64453 1.72376 2.88334C-0.280285 4.50242 -0.562426 7.20944 1.01136 9.12434C2.01938 10.3508 4.60094 12.6252 6.32678 14.102C6.9003 14.5928 7.18706 14.8381 7.53054 14.9365C7.82581 15.0211 8.16324 15.0211 8.45851 14.9365C8.80199 14.8381 9.08875 14.5928 9.66227 14.102C11.3881 12.6252 13.9697 10.3508 14.9777 9.12434C16.5515 7.20944 16.3038 4.48539 14.2653 2.88334C12.7064 1.65817 10.3355 1.72733 8.946 3.03466C8.51857 3.43682 8.18401 3.95615 7.99452 4.591C7.80792 3.95719 7.4736 3.43758 7.0453 3.03448Z" fill="currentColor"/>
    </symbol>
    <symbol viewBox="0 0 16 16" id="close-stroked-16" fill="none">
        <path d="M13.3536 3.35355C13.5488 3.15829 13.5488 2.84171 13.3536 2.64645C13.1583 2.45118 12.8417 2.45118 12.6464 2.64645L13.3536 3.35355ZM2.64645 12.6464C2.45118 12.8417 2.45118 13.1583 2.64645 13.3536C2.84171 13.5488 3.15829 13.5488 3.35355 13.3536L2.64645 12.6464ZM3.35355 2.64645C3.15829 2.45118 2.84171 2.45118 2.64645 2.64645C2.45118 2.84171 2.45118 3.15829 2.64645 3.35355L3.35355 2.64645ZM12.6464 13.3536C12.8417 13.5488 13.1583 13.5488 13.3536 13.3536C13.5488 13.1583 13.5488 12.8417 13.3536 12.6464L12.6464 13.3536ZM12.6464 2.64645L2.64645 12.6464L3.35355 13.3536L13.3536 3.35355L12.6464 2.64645ZM2.64645 3.35355L12.6464 13.3536L13.3536 12.6464L3.35355 2.64645L2.64645 3.35355Z" fill="currentColor"/>
    </symbol>
    <symbol viewBox="0 0 16 16" id="close-circle-stroked-16" fill="none">
        <circle cx="8" cy="8" r="7.25" stroke="currentColor" stroke-width="1.5"/>
        <path d="M5 5L11 11" stroke="currentColor" stroke-width="1.5" stroke-linecap="round"/>
        <path d="M11 5L5 11" stroke="currentColor" stroke-width="1.5" stroke-linecap="round"/>
    </symbol>
    <symbol viewBox="0 0 16 16" id="close-circle-filled-16" fill="none">
        <path fill-rule="evenodd" clip-rule="evenodd" d="M8 16C12.4183 16 16 12.4183 16 8C16 3.58172 12.4183 0 8 0C3.58172 0 0 3.58172 0 8C0 12.4183 3.58172 16 8 16ZM4.46967 4.46967C4.76256 4.17678 5.23744 4.17678 5.53033 4.46967L8 6.93934L10.4697 4.46967C10.7626 4.17678 11.2374 4.17678 11.5303 4.46967C11.8232 4.76256 11.8232 5.23744 11.5303 5.53033L9.06066 8L11.5303 10.4697C11.8232 10.7626 11.8232 11.2374 11.5303 11.5303C11.2374 11.8232 10.7626 11.8232 10.4697 11.5303L8 9.06066L5.53033 11.5303C5.23744 11.8232 4.76256 11.8232 4.46967 11.5303C4.17678 11.2374 4.17678 10.7626 4.46967 10.4697L6.93934 8L4.46967 5.53033C4.17678 5.23744 4.17678 4.76256 4.46967 4.46967Z" fill="currentColor"/>
    </symbol>
    <symbol viewBox="0 0 16 16" id="filter-stroked-16" fill="none">
        <path d="M6 9L1 2H15L10 9V14H6V9Z" stroke="currentColor" stroke-width="1.5" stroke-linecap="round" stroke-linejoin="round"/>
    </symbol>
    <symbol viewBox="0 0 24 24" id="burger-24" fill="none">
        <path d="M4 6H20" stroke="currentColor" stroke-width="1.5" stroke-linecap="round"/>
        <path d="M4 12H20" stroke="currentColor" stroke-width="1.5" stroke-linecap="round"/>
        <path d="M4 18H20" stroke="currentColor" stroke-width="1.5" stroke-linecap="round"/>
    </symbol>
    <symbol viewBox="0 0 16 16" id="coins-stroked-16" fill="none">
        <path d="M6.38374 2.30959C6.1865 2.50286 6.18329 2.81942 6.37656 3.01666C6.56984 3.21389 6.8864 3.2171 7.08364 3.02383L6.38374 2.30959ZM12.9759 8.91611C12.7826 9.11334 12.7858 9.42991 12.983 9.62318C13.1802 9.81646 13.4968 9.81325 13.6901 9.61602L12.9759 8.91611ZM4.72232 8.25068C4.49256 8.40386 4.43047 8.71429 4.58365 8.94406C4.73683 9.17382 5.04726 9.23591 5.27702 9.08273L4.72232 8.25068ZM5.99967 8.00004H6.49967C6.49967 7.81564 6.39818 7.64621 6.2356 7.5592C6.07302 7.47219 5.87575 7.48173 5.72232 7.58402L5.99967 8.00004ZM5.49967 11.6667C5.49967 11.9428 5.72353 12.1667 5.99967 12.1667C6.27582 12.1667 6.49967 11.9428 6.49967 11.6667H5.49967ZM4.99967 11.1667C4.72353 11.1667 4.49967 11.3906 4.49967 11.6667C4.49967 11.9428 4.72353 12.1667 4.99967 12.1667V11.1667ZM6.99967 12.1667C7.27582 12.1667 7.49967 11.9428 7.49967 11.6667C7.49967 11.3906 7.27582 11.1667 6.99967 11.1667V12.1667ZM15.1663 6.00004C15.1663 3.14657 12.8531 0.833374 9.99967 0.833374V1.83337C12.3009 1.83337 14.1663 3.69885 14.1663 6.00004H15.1663ZM9.99967 0.833374C8.59207 0.833374 7.3151 1.39693 6.38374 2.30959L7.08364 3.02383C7.83566 2.28691 8.8642 1.83337 9.99967 1.83337V0.833374ZM13.6901 9.61602C14.6028 8.68466 15.1663 7.40766 15.1663 6.00004H14.1663C14.1663 7.13553 13.7128 8.16409 12.9759 8.91611L13.6901 9.61602ZM10.1663 10C10.1663 12.3012 8.30086 14.1667 5.99967 14.1667V15.1667C8.85315 15.1667 11.1663 12.8535 11.1663 10H10.1663ZM5.99967 14.1667C3.69849 14.1667 1.83301 12.3012 1.83301 10H0.833008C0.833008 12.8535 3.1462 15.1667 5.99967 15.1667V14.1667ZM1.83301 10C1.83301 7.69885 3.69849 5.83337 5.99967 5.83337V4.83337C3.1462 4.83337 0.833008 7.14657 0.833008 10H1.83301ZM5.99967 5.83337C8.30086 5.83337 10.1663 7.69885 10.1663 10H11.1663C11.1663 7.14657 8.85315 4.83337 5.99967 4.83337V5.83337ZM5.27702 9.08273L6.27702 8.41607L5.72232 7.58402L4.72232 8.25068L5.27702 9.08273ZM5.49967 8.00004V11.6667H6.49967V8.00004H5.49967ZM4.99967 12.1667H6.99967V11.1667H4.99967V12.1667Z" fill="currentColor"/>
    </symbol>
    <symbol viewBox="0 0 16 16" id="lock-filled-16" fill="none">
        <rect x="2" y="6" width="12" height="9" rx="2.5" fill="currentColor"/>
        <path d="M5 9V4C5 2.89543 5.89543 2 7 2H9C10.1046 2 11 2.89543 11 4V9" stroke="currentColor" stroke-width="1.5"/>
    </symbol>
    <symbol viewBox="0 0 24 24" id="feather-stroked-24" fill="none">
       <path d="M16 8.00007L2 22.0001M18 15.0001H9M6.6 19.0001H13.3373C13.5818 19.0001 13.7041 19.0001 13.8192 18.9724C13.9213 18.9479 14.0188 18.9075 14.1083 18.8527C14.2092 18.7909 14.2957 18.7044 14.4686 18.5314L19.5 13.5001C19.739 13.2611 19.8584 13.1416 19.9546 13.0358C22.0348 10.7474 22.0348 7.25275 19.9546 4.9643C19.8584 4.85851 19.739 4.73903 19.5 4.50007C19.261 4.26111 19.1416 4.14163 19.0358 4.04547C16.7473 1.96531 13.2527 1.96531 10.9642 4.04547C10.8584 4.14163 10.739 4.26111 10.5 4.50007L5.46863 9.53144C5.29568 9.70439 5.2092 9.79087 5.14736 9.89179C5.09253 9.98126 5.05213 10.0788 5.02763 10.1808C5 10.2959 5 10.4182 5 10.6628V17.4001C5 17.9601 5 18.2401 5.10899 18.4541C5.20487 18.6422 5.35785 18.7952 5.54601 18.8911C5.75992 19.0001 6.03995 19.0001 6.6 19.0001Z" stroke="currentColor" stroke-width="1.5" stroke-linecap="round" stroke-linejoin="round"/>
    </symbol>
    <symbol viewBox="0 0 16 16" id="clock-stroked-24" fill="none">
       <circle cx="8" cy="8" r="6.5" stroke="currentColor"/>
        <path d="M8 4V8L11 11" stroke="currentColor" stroke-linecap="round" stroke-linejoin="round"/>
    </symbol>
    <symbol viewBox="0 0 24 24" id="move-vertical-24" fill="none">
       <circle cx="8.5" cy="5.5" r="1.5" fill="currentColor"/>
        <circle cx="15.5" cy="5.5" r="1.5" fill="currentColor"/>
        <circle cx="8.5" cy="11.5" r="1.5" fill="currentColor"/>
        <circle cx="15.5" cy="11.5" r="1.5" fill="currentColor"/>
        <circle cx="8.5" cy="17.5" r="1.5" fill="currentColor"/>
        <circle cx="15.5" cy="17.5" r="1.5" fill="currentColor"/>
    </symbol>
    <symbol viewBox="0 0 16 16" id="more-16" fill="none">
       <circle cx="2.5" cy="8" r="1.5" fill="currentColor"/>
        <circle cx="8" cy="8" r="1.5" fill="currentColor"/>
        <circle cx="13.5" cy="8" r="1.5" fill="currentColor"/>
    </symbol>
    <symbol viewBox="0 0 16 16" id="more-lines-16" fill="none">
        <path d="M5 3H14" stroke="currentColor" stroke-width="1.5" stroke-linecap="round"/>
        <path d="M5 8H14" stroke="currentColor" stroke-width="1.5" stroke-linecap="round"/>
        <path d="M5 13H14" stroke="currentColor" stroke-width="1.5" stroke-linecap="round"/>
        <circle cx="2" cy="3" r="1" fill="currentColor"/>
        <circle cx="2" cy="8" r="1" fill="currentColor"/>
        <circle cx="2" cy="13" r="1" fill="currentColor"/>
    </symbol>
    <symbol viewBox="0 0 24 24" id="phone-stroked-24" fill="none">
        <path d="M6.09202 21.782L6.43251 21.1138L6.09202 21.782ZM5.21799 20.908L5.88624 20.5675L5.21799 20.908ZM18.782 20.908L18.1138 20.5675L18.782 20.908ZM17.908 21.782L17.5675 21.1138L17.908 21.782ZM17.908 2.21799L17.5675 2.88624L17.908 2.21799ZM18.782 3.09202L18.1138 3.43251L18.782 3.09202ZM6.09202 2.21799L6.43251 2.88624L6.09202 2.21799ZM5.21799 3.09202L5.88624 3.43251L5.21799 3.09202ZM12 16.75C11.5858 16.75 11.25 17.0858 11.25 17.5C11.25 17.9142 11.5858 18.25 12 18.25V16.75ZM12.01 18.25C12.4242 18.25 12.76 17.9142 12.76 17.5C12.76 17.0858 12.4242 16.75 12.01 16.75V18.25ZM8.2 2.75H15.8V1.25H8.2V2.75ZM18.25 5.2V18.8H19.75V5.2H18.25ZM15.8 21.25H8.2V22.75H15.8V21.25ZM5.75 18.8V5.2H4.25V18.8H5.75ZM8.2 21.25C7.62757 21.25 7.24336 21.2494 6.94748 21.2252C6.66035 21.2018 6.52307 21.1599 6.43251 21.1138L5.75153 22.4503C6.08879 22.6221 6.44544 22.6892 6.82533 22.7203C7.19646 22.7506 7.65232 22.75 8.2 22.75V21.25ZM4.25 18.8C4.25 19.3477 4.24942 19.8035 4.27974 20.1747C4.31078 20.5546 4.37789 20.9112 4.54973 21.2485L5.88624 20.5675C5.8401 20.4769 5.79822 20.3396 5.77476 20.0525C5.75058 19.7566 5.75 19.3724 5.75 18.8H4.25ZM6.43251 21.1138C6.19731 20.9939 6.00608 20.8027 5.88624 20.5675L4.54973 21.2485C4.81338 21.7659 5.23408 22.1866 5.75153 22.4503L6.43251 21.1138ZM18.25 18.8C18.25 19.3724 18.2494 19.7566 18.2252 20.0525C18.2018 20.3396 18.1599 20.4769 18.1138 20.5675L19.4503 21.2485C19.6221 20.9112 19.6892 20.5546 19.7203 20.1747C19.7506 19.8035 19.75 19.3477 19.75 18.8H18.25ZM15.8 22.75C16.3477 22.75 16.8035 22.7506 17.1747 22.7203C17.5546 22.6892 17.9112 22.6221 18.2485 22.4503L17.5675 21.1138C17.4769 21.1599 17.3396 21.2018 17.0525 21.2252C16.7566 21.2494 16.3724 21.25 15.8 21.25V22.75ZM18.1138 20.5675C17.9939 20.8027 17.8027 20.9939 17.5675 21.1138L18.2485 22.4503C18.7659 22.1866 19.1866 21.7659 19.4503 21.2485L18.1138 20.5675ZM15.8 2.75C16.3724 2.75 16.7566 2.75058 17.0525 2.77476C17.3396 2.79822 17.4769 2.8401 17.5675 2.88624L18.2485 1.54973C17.9112 1.37789 17.5546 1.31078 17.1747 1.27974C16.8035 1.24942 16.3477 1.25 15.8 1.25V2.75ZM19.75 5.2C19.75 4.65232 19.7506 4.19646 19.7203 3.82533C19.6892 3.44544 19.6221 3.08879 19.4503 2.75153L18.1138 3.43251C18.1599 3.52307 18.2018 3.66035 18.2252 3.94748C18.2494 4.24336 18.25 4.62757 18.25 5.2H19.75ZM17.5675 2.88624C17.8027 3.00608 17.9939 3.19731 18.1138 3.43251L19.4503 2.75153C19.1866 2.23408 18.7659 1.81338 18.2485 1.54973L17.5675 2.88624ZM8.2 1.25C7.65232 1.25 7.19646 1.24942 6.82533 1.27974C6.44545 1.31078 6.08879 1.37789 5.75153 1.54973L6.43251 2.88624C6.52307 2.8401 6.66035 2.79822 6.94748 2.77476C7.24336 2.75058 7.62757 2.75 8.2 2.75V1.25ZM5.75 5.2C5.75 4.62757 5.75058 4.24336 5.77476 3.94748C5.79822 3.66035 5.8401 3.52307 5.88624 3.43251L4.54973 2.75153C4.37789 3.08879 4.31078 3.44545 4.27974 3.82533C4.24942 4.19646 4.25 4.65232 4.25 5.2H5.75ZM5.75153 1.54973C5.23408 1.81338 4.81338 2.23408 4.54973 2.75153L5.88624 3.43251C6.00608 3.19731 6.19731 3.00608 6.43251 2.88624L5.75153 1.54973ZM12 18.25H12.01V16.75H12V18.25ZM11.75 17.5C11.75 17.3619 11.8619 17.25 12 17.25V18.75C12.6904 18.75 13.25 18.1904 13.25 17.5H11.75ZM12 17.25C12.1381 17.25 12.25 17.3619 12.25 17.5H10.75C10.75 18.1904 11.3096 18.75 12 18.75V17.25ZM12.25 17.5C12.25 17.6381 12.1381 17.75 12 17.75V16.25C11.3096 16.25 10.75 16.8096 10.75 17.5H12.25ZM12 17.75C11.8619 17.75 11.75 17.6381 11.75 17.5H13.25C13.25 16.8096 12.6904 16.25 12 16.25V17.75Z" fill="currentColor"/>
    </symbol>
    <symbol viewBox="0 0 16 16" id="phone-filled-16" fill="none">
        <path d="M13.4683 9.64471L13.477 9.64843L13.4858 9.65181C14.1466 9.90596 14.5491 10.576 14.4953 11.4461L14.2876 13.1774C14.2875 13.1778 14.2875 13.1782 14.2874 13.1786C14.1916 13.9396 13.4668 14.4242 12.4457 14.488L12.4457 14.488L12.4423 14.4882C10.137 14.6483 7.31785 13.1577 5.08009 10.9199C2.84233 8.68215 1.35169 5.86305 1.51179 3.5577L1.51201 3.55425C1.5758 2.53365 2.05992 1.80902 2.82039 1.71271L4.62392 1.50461C5.41463 1.45193 6.09098 1.84548 6.34819 2.51422L6.35157 2.52302L6.35529 2.53169L6.76968 3.49859C6.9081 3.88045 6.80396 4.36471 6.53121 4.63746L6.51297 4.6557L6.49671 4.67571L5.58798 5.79415L5.47604 5.93192V6.10944C5.47604 7.25069 6.04162 8.35008 6.84577 9.15423C7.64992 9.95838 8.74931 10.524 9.89056 10.524H10.0681L10.2059 10.412L11.3243 9.50329L11.3244 9.50343L11.3344 9.49487C11.7027 9.17921 12.1387 9.0986 12.5014 9.2303L13.4683 9.64471Z" fill="currentColor" stroke="currentColor"/>
    </symbol>
    <symbol viewBox="0 0 24 24" id="comics-stroked-24" fill="none">
        <path d="M11.3307 5.35376C11.6192 4.88208 12.3808 4.88208 12.6693 5.35376L13.2704 6.33674C13.4071 6.56025 13.6732 6.6968 13.9592 6.69028L15.2174 6.6616C15.8211 6.64784 16.2019 7.23424 15.8867 7.69216L15.2296 8.64646C15.0803 8.86345 15.0803 9.13655 15.2296 9.35354L15.8867 10.3078C16.2019 10.7658 15.8211 11.3522 15.2174 11.3384L13.9592 11.3097C13.6732 11.3032 13.4071 11.4398 13.2704 11.6633L12.6693 12.6462C12.3808 13.1179 11.6192 13.1179 11.3307 12.6462L10.7296 11.6633C10.5929 11.4398 10.3268 11.3032 10.0408 11.3097L8.78262 11.3384C8.1789 11.3522 7.79807 10.7658 8.11334 10.3078L8.77035 9.35354C8.91974 9.13655 8.91974 8.86345 8.77035 8.64646L8.11334 7.69216C7.79807 7.23424 8.1789 6.64784 8.78262 6.6616L10.0408 6.69028C10.3268 6.6968 10.5929 6.56025 10.7296 6.33674L11.3307 5.35376Z" stroke="currentColor" stroke-width="1.5"/>
        <path d="M4 4C4 2.89543 4.89543 2 6 2H18C19.1046 2 20 2.89543 20 4V20C20 21.1046 19.1046 22 18 22H6C4.89543 22 4 21.1046 4 20V4Z" stroke="currentColor" stroke-width="1.5"/>
        <path d="M8 16H16" stroke="currentColor" stroke-width="1.5" stroke-linecap="round"/>
        <path d="M10 19H14" stroke="currentColor" stroke-width="1.5" stroke-linecap="round"/>
    </symbol>
    <symbol viewBox="0 0 24 24" id="search-stroked-24" fill="none">
        <circle cx="10" cy="10" r="6.25" stroke="currentColor" stroke-width="1.5"/>
<path d="M15 15L20 20" stroke="currentColor" stroke-width="1.5" stroke-linecap="round"/>
    </symbol>
    <symbol viewBox="0 0 24 24" id="notifications-stroked-24" fill="none">
        <path d="M9.35493 21C10.0601 21.6224 10.9863 22 12.0008 22C13.0152 22 13.9414 21.6224 14.6466 21M18.0008 8C18.0008 6.4087 17.3686 4.88258 16.2434 3.75736C15.1182 2.63214 13.5921 2 12.0008 2C10.4095 2 8.88333 2.63214 7.75811 3.75736C6.63289 4.88258 6.00075 6.4087 6.00075 8C6.00075 11.0902 5.22122 13.206 4.35042 14.6054C3.61588 15.7859 3.24861 16.3761 3.26208 16.5408C3.27699 16.7231 3.31561 16.7926 3.46253 16.9016C3.59521 17 4.19334 17 5.38961 17H18.6119C19.8082 17 20.4063 17 20.539 16.9016C20.6859 16.7926 20.7245 16.7231 20.7394 16.5408C20.7529 16.3761 20.3856 15.7859 19.6511 14.6054C18.7803 13.206 18.0008 11.0902 18.0008 8Z" stroke="currentColor" stroke-width="1.5" stroke-linecap="round" stroke-linejoin="round"/>
    </symbol>
    <symbol viewBox="0 0 24 24" id="bag-stroked-24" fill="none">
        <path d="M15.9986 8C15.9986 9.06087 15.5772 10.0783 14.827 10.8284C14.0769 11.5786 13.0595 12 11.9986 12C10.9377 12 9.92033 11.5786 9.17018 10.8284C8.42004 10.0783 7.99861 9.06087 7.99861 8M3.63183 7.40138L2.93183 15.8014C2.78145 17.6059 2.70626 18.5082 3.0113 19.2042C3.2793 19.8157 3.74364 20.3204 4.3308 20.6382C4.99908 21 5.90447 21 7.71525 21H16.282C18.0928 21 18.9981 21 19.6664 20.6382C20.2536 20.3204 20.7179 19.8157 20.9859 19.2042C21.291 18.5082 21.2158 17.6059 21.0654 15.8014L20.3654 7.40138C20.236 5.84875 20.1713 5.07243 19.8275 4.48486C19.5247 3.96744 19.0739 3.5526 18.5331 3.29385C17.919 3 17.14 3 15.582 3L8.41525 3C6.85724 3 6.07823 3 5.46413 3.29384C4.92336 3.5526 4.47251 3.96744 4.16974 4.48486C3.82591 5.07243 3.76122 5.84875 3.63183 7.40138Z" stroke="currentColor" stroke-width="1.5" stroke-linecap="round" stroke-linejoin="round"/>
    </symbol>
    <symbol viewBox="0 0 24 24" id="wallet-stroked-24" fill="none">
        <path d="M16.5 14H16.51M3 5V19C3 20.1046 3.89543 21 5 21H19C20.1046 21 21 20.1046 21 19V9C21 7.89543 20.1046 7 19 7L5 7C3.89543 7 3 6.10457 3 5ZM3 5C3 3.89543 3.89543 3 5 3H17M17 14C17 14.2761 16.7761 14.5 16.5 14.5C16.2239 14.5 16 14.2761 16 14C16 13.7239 16.2239 13.5 16.5 13.5C16.7761 13.5 17 13.7239 17 14Z" stroke="currentColor" stroke-width="1.5" stroke-linecap="round" stroke-linejoin="round"/>
    </symbol>
    <symbol viewBox="0 0 32 32" id="credit-card-stroked-32" fill="none">
        <path d="M29.3337 13.3334H2.66699M2.66699 10.9334L2.66699 21.0667C2.66699 22.5602 2.66699 23.307 2.95764 23.8774C3.2133 24.3792 3.62125 24.7871 4.12302 25.0428C4.69345 25.3334 5.44019 25.3334 6.93366 25.3334L25.067 25.3334C26.5605 25.3334 27.3072 25.3334 27.8776 25.0428C28.3794 24.7871 28.7874 24.3792 29.043 23.8774C29.3337 23.307 29.3337 22.5602 29.3337 21.0667V10.9334C29.3337 9.43994 29.3337 8.69321 29.043 8.12278C28.7874 7.62101 28.3794 7.21306 27.8776 6.9574C27.3072 6.66675 26.5605 6.66675 25.067 6.66675L6.93366 6.66675C5.44019 6.66675 4.69345 6.66675 4.12302 6.9574C3.62125 7.21306 3.2133 7.62101 2.95764 8.12277C2.66699 8.6932 2.66699 9.43994 2.66699 10.9334Z" stroke="currentColor" stroke-width="1.5" stroke-linecap="round" stroke-linejoin="round"/>
    </symbol>
    <symbol viewBox="0 0 24 24" id="user-stroked-24" fill="none">
        <path d="M3 20C5.33579 17.5226 8.50702 16 12 16C15.493 16 18.6642 17.5226 21 20M16.5 7.5C16.5 9.98528 14.4853 12 12 12C9.51472 12 7.5 9.98528 7.5 7.5C7.5 5.01472 9.51472 3 12 3C14.4853 3 16.5 5.01472 16.5 7.5Z" stroke="currentColor" stroke-width="1.5" stroke-linecap="round" stroke-linejoin="round"/>
    </symbol>
    <symbol viewBox="0 0 16 16" id="user-filled-16" fill="none">
        <path d="M12 5.5C12 6.84619 11.4746 8.05432 10.6418 8.87897C10.3297 9.18809 10.3973 9.79909 10.814 9.93801L12.6325 10.5442C13.4491 10.8164 14 11.5807 14 12.4415V14C14 14.5523 13.5523 15 13 15H3C2.44772 15 2 14.5523 2 14V12.4415C2 11.5807 2.55086 10.8164 3.36754 10.5442L5.18597 9.93801C5.60273 9.79909 5.67033 9.18809 5.35818 8.87897C4.52544 8.05432 4 6.84619 4 5.5C4 3.01472 5.79086 1 8 1C10.2091 1 12 3.01472 12 5.5Z" fill="currentColor"/>
    </symbol>
    <symbol viewBox="0 0 32 32" id="smile-stroked-sad-32" fill="none">
        <path d="M21.3327 21.3333C21.3327 21.3333 19.3327 18.6666 15.9993 18.6666C12.666 18.6666 10.666 21.3333 10.666 21.3333M19.9993 12H20.0127M11.9993 12H12.0127M29.3327 16C29.3327 23.3638 23.3631 29.3333 15.9993 29.3333C8.63555 29.3333 2.66602 23.3638 2.66602 16C2.66602 8.63616 8.63555 2.66663 15.9993 2.66663C23.3631 2.66663 29.3327 8.63616 29.3327 16ZM20.666 12C20.666 12.3681 20.3675 12.6666 19.9993 12.6666C19.6312 12.6666 19.3327 12.3681 19.3327 12C19.3327 11.6318 19.6312 11.3333 19.9993 11.3333C20.3675 11.3333 20.666 11.6318 20.666 12ZM12.666 12C12.666 12.3681 12.3675 12.6666 11.9993 12.6666C11.6312 12.6666 11.3327 12.3681 11.3327 12C11.3327 11.6318 11.6312 11.3333 11.9993 11.3333C12.3675 11.3333 12.666 11.6318 12.666 12Z" stroke="currentColor" stroke-width="1.5" stroke-linecap="round" stroke-linejoin="round"/>
    </symbol>
    <symbol viewBox="0 0 32 32" id="shop-stroked-32" fill="none">
        <path d="M20 28V20.8C20 20.0533 20 19.6799 19.8547 19.3947C19.7268 19.1438 19.5229 18.9398 19.272 18.812C18.9868 18.6667 18.6134 18.6667 17.8667 18.6667H14.1333C13.3866 18.6667 13.0132 18.6667 12.728 18.812C12.4771 18.9398 12.2732 19.1438 12.1453 19.3947C12 19.6799 12 20.0533 12 20.8V28M4 9.33333C4 11.5425 5.79086 13.3333 8 13.3333C10.2091 13.3333 12 11.5425 12 9.33333C12 11.5425 13.7909 13.3333 16 13.3333C18.2091 13.3333 20 11.5425 20 9.33333C20 11.5425 21.7909 13.3333 24 13.3333C26.2091 13.3333 28 11.5425 28 9.33333M8.26667 28H23.7333C25.2268 28 25.9735 28 26.544 27.7094C27.0457 27.4537 27.4537 27.0457 27.7094 26.544C28 25.9735 28 25.2268 28 23.7333V8.26667C28 6.77319 28 6.02646 27.7094 5.45603C27.4537 4.95426 27.0457 4.54631 26.544 4.29065C25.9735 4 25.2268 4 23.7333 4H8.26667C6.77319 4 6.02646 4 5.45603 4.29065C4.95426 4.54631 4.54631 4.95426 4.29065 5.45603C4 6.02646 4 6.77319 4 8.26667V23.7333C4 25.2268 4 25.9735 4.29065 26.544C4.54631 27.0457 4.95426 27.4537 5.45603 27.7094C6.02646 28 6.77319 28 8.26667 28Z" stroke="currentColor" stroke-width="1.5" stroke-linecap="round" stroke-linejoin="round"/>
    </symbol>
    <symbol viewBox="0 0 32 32" id="blog-stroked-32" fill="none">
        <path d="M28 23.9999L26.6665 25.4586C25.9593 26.2321 25.0002 26.6666 24.0002 26.6666C23.0001 26.6666 22.0411 26.2321 21.3338 25.4586C20.6256 24.6867 19.6666 24.2533 18.6669 24.2533C17.6672 24.2533 16.7082 24.6867 16 25.4586M4 26.6666H6.23272C6.88497 26.6666 7.21109 26.6666 7.51799 26.5929C7.79008 26.5276 8.0502 26.4198 8.2888 26.2736C8.55791 26.1087 8.78851 25.8781 9.24971 25.4169L26 8.66656C27.1046 7.56199 27.1046 5.77113 26 4.66656C24.8955 3.56199 23.1046 3.56199 22 4.66656L5.24968 21.4169C4.78847 21.8781 4.55787 22.1087 4.39296 22.3778C4.24675 22.6164 4.13901 22.8765 4.07368 23.1486C4 23.4555 4 23.7816 4 24.4339V26.6666Z" stroke="currentColor" stroke-width="1.5" stroke-linecap="round" stroke-linejoin="round"/>
    </symbol>
    <symbol viewBox="0 0 32 32" id="video-blog-stroked-32" fill="none">
        <path d="M29.3327 11.9086C29.3327 11.1008 29.3327 10.6969 29.173 10.5099C29.0344 10.3477 28.8265 10.2615 28.6137 10.2783C28.3685 10.2976 28.0829 10.5832 27.5118 11.1543L22.666 16.0001L27.5118 20.8458C28.0829 21.417 28.3685 21.7026 28.6137 21.7219C28.8265 21.7386 29.0344 21.6525 29.173 21.4902C29.3327 21.3032 29.3327 20.8993 29.3327 20.0916V11.9086Z" stroke="currentColor" stroke-width="1.5" stroke-linecap="round" stroke-linejoin="round"/>
<path d="M2.66602 13.0667C2.66602 10.8265 2.66602 9.70643 3.10199 8.85079C3.48548 8.09814 4.09741 7.48622 4.85005 7.10272C5.7057 6.66675 6.82581 6.66675 9.06602 6.66675H16.266C18.5062 6.66675 19.6263 6.66675 20.482 7.10272C21.2346 7.48622 21.8465 8.09814 22.23 8.85079C22.666 9.70643 22.666 10.8265 22.666 13.0667V18.9334C22.666 21.1736 22.666 22.2937 22.23 23.1494C21.8465 23.902 21.2346 24.5139 20.482 24.8974C19.6263 25.3334 18.5062 25.3334 16.266 25.3334H9.06601C6.82581 25.3334 5.7057 25.3334 4.85005 24.8974C4.09741 24.5139 3.48548 23.902 3.10199 23.1494C2.66602 22.2937 2.66602 21.1736 2.66602 18.9334V13.0667Z" stroke="currentColor" stroke-width="1.5" stroke-linecap="round" stroke-linejoin="round"/>
    </symbol>
    <symbol viewBox="0 0 32 32" id="users-stroked-32" fill="none">
        <path d="M21.3327 4.62368C23.3083 5.60548 24.666 7.64419 24.666 10C24.666 12.3558 23.3083 14.3945 21.3327 15.3763M23.9993 22.3552C26.0146 23.2671 27.8294 24.7533 29.3327 26.6667M2.66602 26.6667C5.26134 23.3634 8.78492 21.3333 12.666 21.3333C16.5471 21.3333 20.0707 23.3634 22.666 26.6667M18.666 10C18.666 13.3137 15.9797 16 12.666 16C9.35231 16 6.66602 13.3137 6.66602 10C6.66602 6.68629 9.35231 4 12.666 4C15.9797 4 18.666 6.68629 18.666 10Z" stroke="currentColor" stroke-width="1.5" stroke-linecap="round" stroke-linejoin="round"/>
    </symbol>
    <symbol viewBox="0 0 32 32" id="share-stroked-32" fill="none">
        <path d="M28 8H23.7333C21.4931 8 20.373 8 19.5174 8.43597C18.7647 8.81947 18.1528 9.43139 17.7693 10.184C17.3333 11.0397 17.3333 12.1598 17.3333 14.4V16M28 8L24 4M28 8L24 12M13.3333 4H10.4C8.15979 4 7.03969 4 6.18404 4.43597C5.43139 4.81947 4.81947 5.43139 4.43597 6.18404C4 7.03969 4 8.15979 4 10.4V21.6C4 23.8402 4 24.9603 4.43597 25.816C4.81947 26.5686 5.43139 27.1805 6.18404 27.564C7.03969 28 8.15979 28 10.4 28H21.6C23.8402 28 24.9603 28 25.816 27.564C26.5686 27.1805 27.1805 26.5686 27.564 25.816C28 24.9603 28 23.8402 28 21.6V18.6667" stroke="currentColor" stroke-width="1.5" stroke-linecap="round" stroke-linejoin="round"/>
    </symbol>
    <symbol viewBox="0 0 16 16" id="link-stroked-16" fill="none">
        <path d="M9.16614 12.8384C9.55666 12.4478 9.55666 11.8147 9.16614 11.4242C8.77561 11.0336 8.14245 11.0336 7.75192 11.4242L9.16614 12.8384ZM7.54097 13.0493L8.24808 13.7564H8.24808L7.54097 13.0493ZM2.95068 8.45903L3.65779 9.16614L2.95068 8.45903ZM4.57585 8.24808C4.96637 7.85755 4.96637 7.22439 4.57585 6.83386C4.18532 6.44334 3.55216 6.44334 3.16163 6.83386L4.57585 8.24808ZM2.95068 13.0493L3.65779 12.3422L2.95068 13.0493ZM11.4242 7.75192C11.0336 8.14245 11.0336 8.77561 11.4242 9.16614C11.8147 9.55666 12.4478 9.55666 12.8384 9.16614L11.4242 7.75192ZM8.45903 2.95068L9.16614 3.65779V3.65779L8.45903 2.95068ZM6.83386 3.16163C6.44334 3.55216 6.44334 4.18532 6.83386 4.57585C7.22439 4.96637 7.85755 4.96637 8.24808 4.57585L6.83386 3.16163ZM13.0493 2.95068L12.3422 3.65779L12.3422 3.65779L13.0493 2.95068ZM5.02082 9.56496C4.63029 9.95548 4.63029 10.5886 5.02082 10.9792C5.41134 11.3697 6.0445 11.3697 6.43503 10.9792L5.02082 9.56496ZM10.9792 6.43501C11.3697 6.04449 11.3697 5.41133 10.9792 5.0208C10.5887 4.63028 9.9555 4.63028 9.56497 5.0208L10.9792 6.43501ZM7.75192 11.4242L6.83386 12.3422L8.24808 13.7564L9.16614 12.8384L7.75192 11.4242ZM3.65779 9.16614L4.57585 8.24808L3.16163 6.83386L2.24357 7.75192L3.65779 9.16614ZM3.65779 12.3422C2.78074 11.4652 2.78074 10.0432 3.65779 9.16614L2.24357 7.75192C0.585476 9.41002 0.585475 12.0983 2.24357 13.7564L3.65779 12.3422ZM6.83386 12.3422C5.95682 13.2193 4.53484 13.2193 3.65779 12.3422L2.24357 13.7564C3.90167 15.4145 6.58998 15.4145 8.24808 13.7564L6.83386 12.3422ZM12.8384 9.16614L13.7564 8.24808L12.3422 6.83386L11.4242 7.75192L12.8384 9.16614ZM7.75192 2.24357L6.83386 3.16163L8.24808 4.57585L9.16614 3.65779L7.75192 2.24357ZM13.7564 2.24357C12.0983 0.585475 9.41002 0.585476 7.75192 2.24357L9.16614 3.65779C10.0432 2.78074 11.4652 2.78074 12.3422 3.65779L13.7564 2.24357ZM13.7564 8.24808C15.4145 6.58998 15.4145 3.90167 13.7564 2.24357L12.3422 3.65779C13.2193 4.53484 13.2193 5.95681 12.3422 6.83386L13.7564 8.24808ZM6.43503 10.9792L10.9792 6.43501L9.56497 5.0208L5.02082 9.56496L6.43503 10.9792Z" fill="currentColor"/>
    </symbol>
    <symbol viewBox="0 0 16 16" id="mail-filled-16" fill="none">
        <path fill-rule="evenodd" clip-rule="evenodd" d="M0.87868 2.87868C0 3.75736 0 5.17157 0 8C0 10.8284 0 12.2426 0.87868 13.1213C1.75736 14 3.17157 14 6 14H10C12.8284 14 14.2426 14 15.1213 13.1213C16 12.2426 16 10.8284 16 8C16 5.17157 16 3.75736 15.1213 2.87868C14.2426 2 12.8284 2 10 2H6C3.17157 2 1.75736 2 0.87868 2.87868ZM2.85355 4.14645C2.65829 3.95118 2.34171 3.95118 2.14645 4.14645C1.95118 4.34171 1.95118 4.65829 2.14645 4.85355L5.53388 8.24099L2.1746 11.1204C1.96494 11.3001 1.94066 11.6157 2.12037 11.8254C2.30008 12.0351 2.61573 12.0593 2.8254 11.8796L6.24308 8.95019L7.64645 10.3536C7.74021 10.4473 7.86739 10.5 8 10.5C8.13261 10.5 8.25978 10.4473 8.35355 10.3536L9.75692 8.95019L13.1746 11.8796C13.3843 12.0593 13.6999 12.0351 13.8796 11.8254C14.0593 11.6157 14.0351 11.3001 13.8254 11.1204L10.4661 8.24099L13.8536 4.85355C14.0488 4.65829 14.0488 4.34171 13.8536 4.14645C13.6583 3.95118 13.3417 3.95118 13.1464 4.14645L8 9.29289L2.85355 4.14645Z" fill="currentColor"/>
    </symbol>
    <symbol viewBox="0 0 16 16" id="social-vk-stroked-16" fill="none">
        <path d="M8.71451 13C3.24792 13 0.129919 9.24625 0 3H2.73829C2.82823 7.58458 4.84692 9.52653 6.44592 9.92693V3H9.02441V6.95395C10.6034 6.78378 12.2622 4.98198 12.8218 3H15.4003C14.9705 5.44244 13.1717 7.24424 11.8925 7.98498C13.1717 8.58559 15.2205 10.1572 16 13H13.1617C12.5521 11.0981 11.0332 9.62663 9.02441 9.42643V13H8.71451Z" fill="currentColor"/>
    </symbol>
    <symbol viewBox="0 0 16 16" id="social-telegram-stroked-16" fill="none">
        <path fill-rule="evenodd" clip-rule="evenodd" d="M1.03117 7.59642C5.05769 5.76182 7.74268 4.55233 9.08611 3.96797C12.9219 2.2995 13.7189 2.00967 14.2384 2.0001C14.3527 1.998 14.6082 2.02761 14.7737 2.16804C14.9134 2.28661 14.9518 2.44679 14.9702 2.55921C14.9886 2.67163 15.0115 2.92773 14.9933 3.12784C14.7855 5.41185 13.8861 10.9545 13.4285 13.5127C13.2349 14.5951 12.8536 14.958 12.4845 14.9936C11.6824 15.0707 11.0734 14.4392 10.2965 13.9067C9.08085 13.0733 8.39409 12.5545 7.21409 11.7413C5.8504 10.8015 6.73442 10.285 7.51159 9.44087C7.71497 9.21995 11.249 5.8583 11.3174 5.55334C11.326 5.5152 11.3339 5.37304 11.2532 5.29797C11.1724 5.2229 11.0532 5.24857 10.9672 5.26899C10.8453 5.29792 8.90325 6.64029 5.14115 9.29607C4.58991 9.69192 4.09062 9.88479 3.64327 9.87468C3.15011 9.86354 2.20146 9.58307 1.49623 9.34334C0.631245 9.04929 -0.0562297 8.89383 0.00363389 8.39445C0.0348146 8.13434 0.377327 7.86833 1.03117 7.59642Z" fill="currentColor"/>
    </symbol>
    <symbol viewBox="0 0 16 16" id="social-ok-stroked-16" fill="none">
        <path d="M8.5 0C6.03965 0 4.01936 1.93919 4.01936 4.30077C4.01936 6.66236 6.03965 8.60154 8.5 8.60154C10.9604 8.60154 12.9806 6.66236 12.9806 4.30077C12.9806 1.93919 10.9604 0 8.5 0ZM8.5 2.45758C9.57515 2.45758 10.4203 3.26878 10.4203 4.30077C10.4203 5.33277 9.57515 6.14396 8.5 6.14396C7.42485 6.14396 6.57973 5.33277 6.57973 4.30077C6.57973 3.26878 7.42485 2.45758 8.5 2.45758ZM5.26954 9.06714C4.67945 9.07194 4.16938 9.46554 4.03436 10.0223C3.90434 10.5743 4.18438 11.1407 4.70946 11.3951C5.14452 11.6111 5.60959 11.7791 6.08966 11.9231L4.3194 13.9583C4.00936 14.2943 3.91935 14.7647 4.07437 15.1823C4.22939 15.6047 4.60944 15.9071 5.06951 15.9839C5.52958 16.0559 5.99464 15.8831 6.27968 15.5327L8.5 12.9791L10.7203 15.5327C11.0054 15.8831 11.4704 16.0559 11.9305 15.9839C12.3906 15.9071 12.7706 15.6047 12.9256 15.1823C13.0807 14.7647 12.9906 14.2943 12.6806 13.9583L10.9103 11.9231C11.3904 11.7791 11.8555 11.6111 12.2855 11.3951C12.9156 11.0831 13.1607 10.3439 12.8356 9.73914C12.5156 9.13434 11.7405 8.89914 11.1104 9.21114C10.3153 9.60474 9.44013 9.83034 8.5 9.83034C7.55987 9.83034 6.68474 9.60474 5.88963 9.21114C5.6996 9.11514 5.48457 9.06234 5.26954 9.06714Z" fill="currentColor"/>
    </symbol>
    <symbol viewBox="0 0 32 32" id="social-ok-filled-32" fill="none">
        <path fill-rule="evenodd" clip-rule="evenodd" d="M2.24551 2.24551C0 4.49103 0 8.10513 0 15.3333V16.6667C0 23.8949 0 27.509 2.24551 29.7545C4.49103 32 8.10513 32 15.3333 32H16.6667C23.8949 32 27.509 32 29.7545 29.7545C32 27.509 32 23.8949 32 16.6667V15.3333C32 8.10513 32 4.49103 29.7545 2.24551C27.509 0 23.8949 0 16.6667 0H15.3333C8.10513 0 4.49103 0 2.24551 2.24551ZM11.0215 11.8384C11.0215 9.18159 13.2663 7 16 7C18.7337 7 20.9785 9.18159 20.9785 11.8384C20.9785 14.4952 18.7337 16.6767 16 16.6767C13.2663 16.6767 11.0215 14.4952 11.0215 11.8384ZM18.1336 11.8384C18.1336 10.6774 17.1946 9.76478 16 9.76478C14.8054 9.76478 13.8664 10.6774 13.8664 11.8384C13.8664 12.9994 14.8054 13.912 16 13.912C17.1946 13.912 18.1336 12.9994 18.1336 11.8384ZM11.0382 18.2751C11.1882 17.6487 11.7549 17.2059 12.4106 17.2005C12.6495 17.1951 12.8884 17.2545 13.0996 17.3625C13.983 17.8053 14.9554 18.0591 16 18.0591C17.0446 18.0591 18.017 17.8053 18.9004 17.3625C19.6005 17.0115 20.4617 17.2761 20.8174 17.9565C21.1785 18.6369 20.9063 19.4685 20.2062 19.8195C19.7283 20.0625 19.2116 20.2515 18.6782 20.4135L20.6451 22.7031C20.9896 23.0811 21.0896 23.6103 20.9174 24.0801C20.7451 24.5553 20.3228 24.8955 19.8117 24.9819C19.3005 25.0629 18.7837 24.8685 18.467 24.4743L16 21.6015L13.533 24.4743C13.2163 24.8685 12.6995 25.0629 12.1883 24.9819C11.6772 24.8955 11.2549 24.5553 11.0826 24.0801C10.9104 23.6103 11.0104 23.0811 11.3549 22.7031L13.3218 20.4135C12.7884 20.2515 12.2717 20.0625 11.7883 19.8195C11.2049 19.5333 10.8937 18.8961 11.0382 18.2751Z" fill="#E08733"/>
    </symbol>
    <symbol viewBox="0 0 16 16" id="social-yandex-stroked-16" fill="none">
        <path d="M10.381 15H13V1H9.19051C5.35928 1 3.34631 2.83312 3.34631 5.5324C3.34631 7.68781 4.45021 8.95686 6.41994 10.2661L3 15H5.83555L9.64504 9.70216L8.32468 8.87626C6.723 7.86904 5.94378 7.08348 5.94378 5.39133C5.94378 3.90071 7.0693 2.89349 9.21213 2.89349H10.381V15Z" fill="currentColor"/>
    </symbol>
    <symbol viewBox="0 0 16 16" id="social-google-stroked-16" fill="none">
        <path fill-rule="evenodd" clip-rule="evenodd" d="M14.9998 8.15913C14.9998 7.66276 14.9543 7.18548 14.8699 6.72729H8.14258V9.43506H11.9868C11.8212 10.3101 11.3179 11.0514 10.5614 11.5478V13.3042H12.8699C14.2206 12.0855 14.9998 10.291 14.9998 8.15913Z" fill="#4285F4"/>
<path fill-rule="evenodd" clip-rule="evenodd" d="M8.14293 15C10.0715 15 11.6884 14.3732 12.8702 13.3041L10.5618 11.5477C9.92217 11.9677 9.10398 12.2159 8.14293 12.2159C6.28253 12.2159 4.70784 10.9845 4.14615 9.32996H1.75977V11.1436C2.9351 13.4314 5.3507 15 8.14293 15Z" fill="#34A853"/>
<path fill-rule="evenodd" clip-rule="evenodd" d="M4.14613 9.33014C4.00327 8.91014 3.9221 8.46149 3.9221 8.00012C3.9221 7.53875 4.00327 7.09011 4.14613 6.67011V4.85645H1.75975C1.27598 5.80146 1 6.87056 1 8.00012C1 9.12968 1.27598 10.1988 1.75975 11.1438L4.14613 9.33014Z" fill="#FBBC05"/>
<path fill-rule="evenodd" clip-rule="evenodd" d="M8.14293 3.78413C9.19164 3.78413 10.1332 4.13732 10.8735 4.83096L12.9222 2.82321C11.6852 1.69365 10.0683 1 8.14293 1C5.3507 1 2.9351 2.56866 1.75977 4.85642L4.14615 6.67008C4.70784 5.01551 6.28253 3.78413 8.14293 3.78413Z" fill="#EA4335"/>
    </symbol>
    <symbol viewBox="0 0 16 16" id="settings-stroked-16" fill="none">
        <path d="M8.06983 10.1C9.17973 10.1 10.0795 9.1598 10.0795 8C10.0795 6.8402 9.17973 5.9 8.06983 5.9C6.95994 5.9 6.06018 6.8402 6.06018 8C6.06018 9.1598 6.95994 10.1 8.06983 10.1Z" stroke="currentColor" stroke-width="1.5" stroke-linecap="round" stroke-linejoin="round"/>
<path d="M6.25384 13.1598L6.64535 14.0799C6.76173 14.3538 6.95167 14.5865 7.19212 14.7498C7.43258 14.9131 7.71321 15 8 15C8.28679 15 8.56742 14.9131 8.80788 14.7498C9.04833 14.5865 9.23827 14.3538 9.35465 14.0799L9.74616 13.1598C9.88553 12.8333 10.12 12.5611 10.416 12.382C10.714 12.2024 11.0587 12.1259 11.4008 12.1634L12.3587 12.27C12.6439 12.3015 12.9316 12.2459 13.1871 12.1099C13.4427 11.9739 13.6549 11.7634 13.7982 11.5039C13.9417 11.2445 14.01 10.9472 13.995 10.648C13.9799 10.3488 13.8821 10.0607 13.7134 9.81844L13.1462 9.00411C12.9442 8.71199 12.8363 8.36037 12.838 8C12.838 7.64061 12.9469 7.29044 13.1492 6.99978L13.7163 6.18544C13.8851 5.94323 13.9829 5.65505 13.998 5.35587C14.013 5.05669 13.9447 4.75938 13.8012 4.5C13.6579 4.24046 13.4456 4.02994 13.1901 3.89396C12.9346 3.75798 12.6468 3.70237 12.3617 3.73389L11.4038 3.84044C11.0617 3.87799 10.717 3.80148 10.419 3.62189C10.1223 3.44178 9.88785 3.16815 9.74914 2.84022L9.35465 1.92011C9.23827 1.64622 9.04833 1.4135 8.80788 1.25018C8.56742 1.08686 8.28679 0.999951 8 1C7.71321 0.999951 7.43258 1.08686 7.19212 1.25018C6.95167 1.4135 6.76173 1.64622 6.64535 1.92011L6.25384 2.84022C6.11512 3.16815 5.88063 3.44178 5.58395 3.62189C5.286 3.80148 4.94132 3.87799 4.59923 3.84044L3.63832 3.73389C3.35317 3.70237 3.06539 3.75798 2.80988 3.89396C2.55437 4.02994 2.3421 4.24046 2.19881 4.5C2.05534 4.75938 1.98698 5.05669 2.00205 5.35587C2.01711 5.65505 2.11494 5.94323 2.28366 6.18544L2.85083 6.99978C3.0531 7.29044 3.16202 7.64061 3.16196 8C3.16202 8.35939 3.0531 8.70955 2.85083 9.00022L2.28366 9.81456C2.11494 10.0568 2.01711 10.345 2.00205 10.6441C1.98698 10.9433 2.05534 11.2406 2.19881 11.5C2.34224 11.7594 2.55454 11.9698 2.81001 12.1058C3.06549 12.2417 3.35319 12.2974 3.63832 12.2661L4.59625 12.1596C4.93834 12.122 5.28302 12.1985 5.58098 12.3781C5.87876 12.5577 6.11434 12.8314 6.25384 13.1598Z" stroke="currentColor" stroke-width="1.5" stroke-linecap="round" stroke-linejoin="round"/>
    </symbol>
    <symbol viewBox="0 0 24 24" id="refresh-stroked-24" fill="none">
       <path d="M8.54734 19.7675C10.9465 20.8319 13.8039 20.7741 16.2509 19.3613C20.3164 17.0141 21.7093 11.8156 19.3621 7.75008L19.1121 7.31706M4.63924 16.2502C2.29203 12.1847 3.68497 6.98619 7.75045 4.63898C10.1974 3.22621 13.0549 3.16841 15.454 4.23277M2.49414 16.3338L5.22619 17.0659L5.95824 14.3338M18.0434 9.6659L18.7754 6.93385L21.5075 7.6659" stroke="currentColor" stroke-width="1.5" stroke-linecap="round" stroke-linejoin="round"/>
    </symbol>
    <symbol viewBox="0 0 24 24" id="info-stroked-24" fill="none">
       <path d="M12 16V12M12 8H12.01M22 12C22 17.5228 17.5228 22 12 22C6.47715 22 2 17.5228 2 12C2 6.47715 6.47715 2 12 2C17.5228 2 22 6.47715 22 12Z" stroke="currentColor" stroke-width="1.5" stroke-linecap="round" stroke-linejoin="round"/>
    </symbol>
    <symbol viewBox="0 0 24 24" id="sale-stroked-24" fill="none">
       <path d="M9 9H9.01M15 15H15.01M16 8L8 16M17.9012 4.99851C18.1071 5.49653 18.5024 5.8924 19.0001 6.09907L20.7452 6.82198C21.2433 7.02828 21.639 7.42399 21.8453 7.92206C22.0516 8.42012 22.0516 8.97974 21.8453 9.47781L21.1229 11.2218C20.9165 11.7201 20.9162 12.2803 21.1236 12.7783L21.8447 14.5218C21.9469 14.7685 21.9996 15.0329 21.9996 15.2999C21.9997 15.567 21.9471 15.8314 21.8449 16.0781C21.7427 16.3249 21.5929 16.549 21.4041 16.7378C21.2152 16.9266 20.991 17.0764 20.7443 17.1785L19.0004 17.9009C18.5023 18.1068 18.1065 18.5021 17.8998 18.9998L17.1769 20.745C16.9706 21.2431 16.575 21.6388 16.0769 21.8451C15.5789 22.0514 15.0193 22.0514 14.5212 21.8451L12.7773 21.1227C12.2792 20.9169 11.7198 20.9173 11.2221 21.1239L9.47689 21.8458C8.97912 22.0516 8.42001 22.0514 7.92237 21.8453C7.42473 21.6391 7.02925 21.2439 6.82281 20.7464L6.09972 19.0006C5.8938 18.5026 5.49854 18.1067 5.00085 17.9L3.25566 17.1771C2.75783 16.9709 2.36226 16.5754 2.15588 16.0777C1.94951 15.5799 1.94923 15.0205 2.1551 14.5225L2.87746 12.7786C3.08325 12.2805 3.08283 11.7211 2.8763 11.2233L2.15497 9.47678C2.0527 9.2301 2.00004 8.96568 2 8.69863C1.99996 8.43159 2.05253 8.16715 2.15472 7.92043C2.25691 7.67372 2.40671 7.44955 2.59557 7.26075C2.78442 7.07195 3.00862 6.92222 3.25537 6.8201L4.9993 6.09772C5.49687 5.89197 5.89248 5.4972 6.0993 5.00006L6.82218 3.25481C7.02848 2.75674 7.42418 2.36103 7.92222 2.15473C8.42027 1.94842 8.97987 1.94842 9.47792 2.15473L11.2218 2.87712C11.7199 3.08291 12.2793 3.08249 12.7771 2.87595L14.523 2.15585C15.021 1.94966 15.5804 1.9497 16.0784 2.15597C16.5763 2.36223 16.972 2.75783 17.1783 3.25576L17.9014 5.00153L17.9012 4.99851ZM9.5 9C9.5 9.27614 9.27614 9.5 9 9.5C8.72386 9.5 8.5 9.27614 8.5 9C8.5 8.72386 8.72386 8.5 9 8.5C9.27614 8.5 9.5 8.72386 9.5 9ZM15.5 15C15.5 15.2761 15.2761 15.5 15 15.5C14.7239 15.5 14.5 15.2761 14.5 15C14.5 14.7239 14.7239 14.5 15 14.5C15.2761 14.5 15.5 14.7239 15.5 15Z" stroke="currentColor" stroke-width="1.5" stroke-linecap="round" stroke-linejoin="round"/>
    </symbol>
    <symbol viewBox="0 0 16 16" id="minus-stroked-16" fill="none">
       <path d="M2 8L8 8L14 8" stroke="currentColor" stroke-width="1.5" stroke-linecap="round" stroke-linejoin="round"/>
    </symbol>
    <symbol viewBox="0 0 16 16" id="plus-stroked-16" fill="none">
       <path d="M2 8H8M8 8L8 14M8 8L8 2M8 8L14 8" stroke="currentColor" stroke-width="1.5" stroke-linecap="round" stroke-linejoin="round"/>
    </symbol>
    <symbol viewBox="0 0 24 24" id="lightbulb-stroked-24" fill="none">
       <path d="M9.5 22H14.5M15 15.3264C17.3649 14.2029 19 11.7924 19 9C19 5.13401 15.866 2 12 2C8.13401 2 5 5.13401 5 9C5 11.7924 6.63505 14.2029 9 15.3264V16C9 16.9319 9 17.3978 9.15224 17.7654C9.35523 18.2554 9.74458 18.6448 10.2346 18.8478C10.6022 19 11.0681 19 12 19C12.9319 19 13.3978 19 13.7654 18.8478C14.2554 18.6448 14.6448 18.2554 14.8478 17.7654C15 17.3978 15 16.9319 15 16V15.3264Z" stroke="currentColor" stroke-width="1.5" stroke-linecap="round" stroke-linejoin="round"/>
    </symbol>
    <symbol viewBox="0 0 16 16" id="font-stroked-16" fill="none">
       <path d="M1.5 3V1.5H10.5V3M6 1.5C6 6.57682 6 14.5 6 14.5M4 14.5H8" stroke="currentColor" stroke-width="1.5" stroke-linecap="round" stroke-linejoin="round"/>
        <path d="M9 7V6H15V7M12 6.5V14.5M12 14.5H11M12 14.5H13" stroke="currentColor" stroke-width="1.5" stroke-linecap="round" stroke-linejoin="round"/>
    </symbol>
    <symbol viewBox="0 0 24 24" id="pencil-line-stroked-24" fill="none">
       <path d="M12 20H21M3 20H4.67454C5.16372 20 5.40832 20 5.63849 19.9447C5.84256 19.8957 6.03765 19.8149 6.2166 19.7053C6.41843 19.5816 6.59138 19.4086 6.93729 19.0627L19.5 6.49998C20.3285 5.67156 20.3285 4.32841 19.5 3.49998C18.6716 2.67156 17.3285 2.67156 16.5 3.49998L3.93726 16.0627C3.59136 16.4086 3.4184 16.5816 3.29472 16.7834C3.18506 16.9624 3.10425 17.1574 3.05526 17.3615C3 17.5917 3 17.8363 3 18.3255V20Z" stroke="currentColor" stroke-width="1.5" stroke-linecap="round" stroke-linejoin="round"/>
    </symbol>
    <symbol viewBox="0 0 24 24" id="gift-stroked-24" fill="none">
      <path d="M12 6V22M12 6H8.46429C7.94332 6 7.4437 5.78929 7.07533 5.41421C6.70695 5.03914 6.5 4.53043 6.5 4C6.5 3.46957 6.70695 2.96086 7.07533 2.58579C7.4437 2.21071 7.94332 2 8.46429 2C11.2143 2 12 6 12 6ZM12 6H15.5357C16.0567 6 16.5563 5.78929 16.9247 5.41421C17.293 5.03914 17.5 4.53043 17.5 4C17.5 3.46957 17.293 2.96086 16.9247 2.58579C16.5563 2.21071 16.0567 2 15.5357 2C12.7857 2 12 6 12 6ZM20 11V18.8C20 19.9201 20 20.4802 19.782 20.908C19.5903 21.2843 19.2843 21.5903 18.908 21.782C18.4802 22 17.9201 22 16.8 22L7.2 22C6.07989 22 5.51984 22 5.09202 21.782C4.71569 21.5903 4.40973 21.2843 4.21799 20.908C4 20.4802 4 19.9201 4 18.8V11M2 7.6L2 9.4C2 9.96005 2 10.2401 2.10899 10.454C2.20487 10.6422 2.35785 10.7951 2.54601 10.891C2.75992 11 3.03995 11 3.6 11L20.4 11C20.9601 11 21.2401 11 21.454 10.891C21.6422 10.7951 21.7951 10.6422 21.891 10.454C22 10.2401 22 9.96005 22 9.4V7.6C22 7.03995 22 6.75992 21.891 6.54601C21.7951 6.35785 21.6422 6.20487 21.454 6.10899C21.2401 6 20.9601 6 20.4 6L3.6 6C3.03995 6 2.75992 6 2.54601 6.10899C2.35785 6.20487 2.20487 6.35785 2.10899 6.54601C2 6.75992 2 7.03995 2 7.6Z" stroke="currentColor" stroke-width="1.5" stroke-linecap="round" stroke-linejoin="round"/>
    </symbol>
    <symbol viewBox="0 0 32 32" id="speaker-stroked-32" fill="none">
      <path d="M23.668 18.3333C26.2453 18.3333 28.3346 14.4531 28.3346 9.66667C28.3346 4.8802 26.2453 1 23.668 1M23.668 18.3333C21.0906 18.3333 19.0013 14.4531 19.0013 9.66667C19.0013 4.8802 21.0906 1 23.668 1M23.668 18.3333L6.25936 15.1681C5.0227 14.9433 4.40438 14.8309 3.9044 14.5853C2.88726 14.0856 2.12978 13.178 1.82016 12.0879C1.66797 11.5521 1.66797 10.9236 1.66797 9.66667C1.66797 8.40973 1.66797 7.78127 1.82016 7.24543C2.12978 6.15532 2.88726 5.2477 3.9044 4.74806C4.40438 4.50247 5.0227 4.39005 6.25936 4.1652L23.668 1M5.66797 15.6667L6.19311 23.0187C6.24298 23.7169 6.26792 24.0659 6.4198 24.3305C6.55353 24.5634 6.75449 24.7506 6.99636 24.8674C7.27107 25 7.62105 25 8.32102 25H10.6976C11.4978 25 11.8979 25 12.194 24.8404C12.4542 24.7002 12.6604 24.4775 12.7803 24.2073C12.9167 23.8998 12.886 23.5009 12.8246 22.703L12.3346 16.3333" stroke="currentColor" stroke-width="1.5" stroke-linecap="round" stroke-linejoin="round"/>
    </symbol>
    <symbol viewBox="0 0 32 32" id="promocode-stroked-32" fill="none">
      <path d="M13.8346 10.6666V9.33325M13.8346 16.6666V15.3333M13.8346 22.6666V21.3333M7.43464 5.33325H25.568C27.0614 5.33325 27.8082 5.33325 28.3786 5.6239C28.8804 5.87956 29.2883 6.28751 29.544 6.78928C29.8346 7.35971 29.8346 8.10645 29.8346 9.59992V11.3333C27.2573 11.3333 25.168 13.4226 25.168 15.9999C25.168 18.5772 27.2573 20.6666 29.8346 20.6666V22.3999C29.8346 23.8934 29.8346 24.6401 29.544 25.2106C29.2883 25.7123 28.8804 26.1203 28.3786 26.3759C27.8082 26.6666 27.0614 26.6666 25.568 26.6666H7.43464C5.94116 26.6666 5.19443 26.6666 4.62399 26.3759C4.12223 26.1203 3.71428 25.7123 3.45862 25.2106C3.16797 24.6401 3.16797 23.8934 3.16797 22.3999V20.6666C5.7453 20.6666 7.83464 18.5772 7.83464 15.9999C7.83464 13.4226 5.7453 11.3333 3.16797 11.3333V9.59992C3.16797 8.10645 3.16797 7.35971 3.45862 6.78928C3.71428 6.28751 4.12223 5.87956 4.62399 5.6239C5.19443 5.33325 5.94116 5.33325 7.43464 5.33325Z" stroke="currentColor" stroke-width="1.5" stroke-linecap="round" stroke-linejoin="round"/>
    </symbol>
    <symbol viewBox="0 0 32 32" id="line-chart-stroked-32" fill="none">
      <path d="M28 28H6.13333C5.3866 28 5.01323 28 4.72801 27.8547C4.47713 27.7268 4.27316 27.5229 4.14532 27.272C4 26.9868 4 26.6134 4 25.8667V4M26.6667 10.6667L21.4415 16.2435C21.2435 16.4549 21.1445 16.5606 21.025 16.6152C20.9196 16.6634 20.8034 16.6833 20.688 16.6729C20.5571 16.6611 20.4286 16.5944 20.1716 16.4609L15.8284 14.2058C15.5714 14.0723 15.4429 14.0056 15.312 13.9938C15.1966 13.9834 15.0804 14.0033 14.975 14.0515C14.8555 14.1061 14.7565 14.2118 14.5585 14.4231L9.33333 20" stroke="currentColor" stroke-width="1.5" stroke-linecap="round" stroke-linejoin="round"/>
    </symbol>
    <symbol viewBox="0 0 32 32" id="currency-ruble-strocked-32" fill="none">
      <path d="M12.6641 8.66663H18.6641C20.505 8.66663 21.9974 10.159 21.9974 12C21.9974 13.8409 20.505 15.3333 18.6641 15.3333H12.6641V8.66663ZM12.6641 8.66663V23.3333M12.9974 15.3333H10.6641M17.3307 19.6666H10.6641M29.3307 16C29.3307 23.3638 23.3612 29.3333 15.9974 29.3333C8.6336 29.3333 2.66406 23.3638 2.66406 16C2.66406 8.63616 8.6336 2.66663 15.9974 2.66663C23.3612 2.66663 29.3307 8.63616 29.3307 16Z" stroke="currentColor" stroke-width="1.5" stroke-linecap="round" stroke-linejoin="round"/>
    </symbol>
    <symbol viewBox="0 0 16 16" id="snowflake-stroked-16" fill="none">
      <path d="M12.0415 5.66668L3.95861 10.3333M12.0415 5.66668L12.7736 2.93463M12.0415 5.66668L14.7736 6.39873M3.95861 10.3333L1.22656 9.60129M3.95861 10.3333L3.22656 13.0654M12.0415 10.3332L3.95856 5.66658M12.0415 10.3332L14.7736 9.60121M12.0415 10.3332L12.7736 13.0653M3.95856 5.66658L3.22666 2.9347M3.95856 5.66658L1.22666 6.3988M8.00007 3.33334L8.00007 12.6667M8.00007 3.33334L6.00007 1.33334M8.00007 3.33334L10.0001 1.33334M8.00007 12.6667L6.00007 14.6667M8.00007 12.6667L10.0001 14.6667" stroke="currentColor" stroke-linecap="round" stroke-linejoin="round"/>
    </symbol>
    <symbol viewBox="0 0 16 16" id="eye-off-stroked-16" fill="none">
      <path d="M7.16196 3.39488C7.4329 3.35482 7.7124 3.33333 8.00028 3.33333C11.4036 3.33333 13.6369 6.33656 14.3871 7.52455C14.4779 7.66833 14.5233 7.74023 14.5488 7.85112C14.5678 7.93439 14.5678 8.06578 14.5487 8.14905C14.5233 8.25993 14.4776 8.3323 14.3861 8.47705C14.1862 8.79343 13.8814 9.23807 13.4777 9.7203M4.48288 4.47669C3.0415 5.45447 2.06297 6.81292 1.61407 7.52352C1.52286 7.66791 1.47725 7.74011 1.45183 7.85099C1.43273 7.93426 1.43272 8.06563 1.45181 8.14891C1.47722 8.25979 1.52262 8.33168 1.61342 8.47545C2.36369 9.66344 4.59694 12.6667 8.00028 12.6667C9.37255 12.6667 10.5546 12.1784 11.5259 11.5177M2.00028 2L14.0003 14M6.58606 6.58579C6.22413 6.94772 6.00028 7.44772 6.00028 8C6.00028 9.10457 6.89571 10 8.00028 10C8.55256 10 9.05256 9.77614 9.41449 9.41421" stroke="currentColor" stroke-linecap="round" stroke-linejoin="round"/>
    </symbol>
    <symbol viewBox="0 0 16 16" id="connected-fill-16" fill="none">
      <path fill-rule="evenodd" clip-rule="evenodd" d="M8 15C11.866 15 15 11.866 15 8C15 4.13401 11.866 1 8 1C4.13401 1 1 4.13401 1 8C1 11.866 4.13401 15 8 15ZM11.5575 6.50172C11.8346 6.19384 11.8096 5.71962 11.5017 5.44253C11.1938 5.16544 10.7196 5.19039 10.4425 5.49828L7.38228 8.89856L5.54104 6.9806C5.25418 6.68179 4.77941 6.6721 4.4806 6.95896C4.18179 7.24582 4.1721 7.72059 4.45896 8.0194L6.85896 10.5194C7.00329 10.6697 7.20368 10.7533 7.41207 10.7499C7.62045 10.7465 7.81805 10.6566 7.95747 10.5017L11.5575 6.50172Z" fill="currentColor"/>
    </symbol>
    <symbol viewBox="0 0 17 17" id="pdf-16" fill="none">
      <rect x="4.68239" y="5.80933" width="11.8134" height="10.0609" fill="#FF0000"/>
      <path d="M10.2613 8.31156C10.099 7.79229 10.1023 6.78945 10.1964 6.78945C10.469 6.78945 10.443 7.98702 10.2613 8.31156ZM10.2061 9.84341C9.95622 10.499 9.64466 11.2487 9.28442 11.8783C9.87833 11.6511 10.5501 11.3201 11.3258 11.1675C10.9136 10.856 10.5177 10.4081 10.2061 9.84341ZM7.15216 13.8937C7.15216 13.9197 7.58056 13.7185 8.28482 12.589C8.06738 12.7935 7.3404 13.3842 7.15216 13.8937ZM12.4065 5.1927H16.8203V15.8377C16.8203 16.2694 16.4731 16.6166 16.0414 16.6166H5.13675C4.70511 16.6166 4.35784 16.2694 4.35784 15.8377V0.778905C4.35784 0.347262 4.70511 0 5.13675 0H11.6276V4.41379C11.6276 4.84219 11.9781 5.1927 12.4065 5.1927ZM12.1469 10.7684C11.4978 10.3724 11.0662 9.82718 10.7611 9.02231C10.9071 8.42191 11.1376 7.50994 10.9623 6.93874C10.8098 5.98458 9.58624 6.0787 9.41099 6.71805C9.24872 7.31197 9.39801 8.14929 9.67387 9.21704C9.2974 10.1128 8.74243 11.3136 8.34973 12.0016C8.34648 12.0016 8.34648 12.0049 8.34324 12.0049C7.46373 12.456 5.9546 13.4491 6.57448 14.2118C6.75622 14.4357 7.09375 14.5363 7.27225 14.5363C7.85318 14.5363 8.43087 13.9521 9.25521 12.5306C10.0925 12.2548 11.011 11.9108 11.8191 11.7777C12.5234 12.1606 13.3477 12.4105 13.8962 12.4105C14.8438 12.4105 14.9088 11.372 14.5355 11.002C14.0844 10.5606 12.7733 10.6872 12.1469 10.7684ZM16.5931 3.40771L13.4126 0.227181C13.2666 0.0811359 13.0686 0 12.8609 0H12.6662V4.15416H16.8203V3.95619C16.8203 3.75172 16.7392 3.55375 16.5931 3.40771ZM14.1883 11.6933C14.3213 11.6057 14.1071 11.3071 12.7992 11.4012C14.0033 11.914 14.1883 11.6933 14.1883 11.6933Z" fill="#D9D9D9"/>
      <rect x="0.820318" y="1.36308" width="7.75659" height="3.11562" fill="#FF0000"/>
      <path d="M2.29387 3.6998V2.18919H2.94591C3.05802 2.18919 3.15612 2.21132 3.24021 2.25558C3.32429 2.29983 3.38969 2.36204 3.43641 2.44219C3.48312 2.52234 3.50648 2.61602 3.50648 2.72322C3.50648 2.8314 3.48239 2.92507 3.4342 3.00424C3.3865 3.08341 3.31938 3.14438 3.23283 3.18717C3.14678 3.22995 3.04622 3.25134 2.93115 3.25134H2.5417V2.93269H2.84854C2.89673 2.93269 2.93779 2.92433 2.97172 2.90762C3.00614 2.8904 3.03245 2.86606 3.05064 2.83459C3.06933 2.80312 3.07867 2.766 3.07867 2.72322C3.07867 2.67994 3.06933 2.64306 3.05064 2.61258C3.03245 2.5816 3.00614 2.55799 2.97172 2.54177C2.93779 2.52505 2.89673 2.51669 2.84854 2.51669H2.70397V3.6998H2.29387Z" fill="white"/>
      <path d="M4.67437 3.6998H4.09314V2.18919H4.66846C4.82385 2.18919 4.9581 2.21944 5.07119 2.27992C5.18478 2.33991 5.27231 2.42645 5.33378 2.53955C5.39574 2.65216 5.42672 2.78714 5.42672 2.9445C5.42672 3.10185 5.39598 3.23708 5.33452 3.35017C5.27305 3.46278 5.18601 3.54933 5.07341 3.60981C4.9608 3.6698 4.82779 3.6998 4.67437 3.6998ZM4.50324 3.35165H4.65961C4.73436 3.35165 4.79804 3.3396 4.85065 3.31551C4.90376 3.29141 4.94408 3.24986 4.97162 3.19085C4.99965 3.13185 5.01366 3.04973 5.01366 2.9445C5.01366 2.83926 4.9994 2.75715 4.97088 2.69814C4.94285 2.63913 4.90155 2.59758 4.84696 2.57348C4.79287 2.54939 4.72649 2.53734 4.64781 2.53734H4.50324V3.35165Z" fill="white"/>
      <path d="M6.05265 3.6998V2.18919H7.11479V2.51964H6.46276V2.77927H7.04988V3.10972H6.46276V3.6998H6.05265Z" fill="white"/>
    </symbol>
</svg>